<svg version="1.2" xmlns="http://www.w3.org/2000/svg" viewBox="0 0 1092 1104" width="1092" height="1104"><style>.a{fill:#94e1e3}.b{fill:#2d4356}.c{fill:#e1ebf3}.d{fill:#fedb80}</style><path class="a" d="m586.1 183.4c-0.1 1-1 1.6-2.4 1.6-1.2 0-2 0.2-1.7 0.5 0.3 0.4 3.5 0.3 7.2 0 5-0.5 6.5-1 5.7-1.8-0.6-0.7-2.8-1.3-4.9-1.5-3-0.2-3.9 0.1-3.9 1.2z"/><path class="a" d="m599 183c-1.6 0.6 2.8 0.7 11.5 0.4 12.4-0.6 14.5-0.4 17.9 1.2 2.5 1.2 4.4 3 5.2 4.9 1.2 2.6 1.3 2.7 1.4 0.7 0-1.2-1-3.1-2.2-4.1-1.3-1.1-2-2.3-1.6-2.8 0.3-0.4-6.2-0.9-14.5-1-8.4-0.1-16.3 0.3-17.7 0.7z"/><path class="b" d="m603 184.1c-5.2 0.4-13.1 1.2-17.5 1.8-4.4 0.5-13.3 2.2-19.8 3.6-6.4 1.4-12.5 2.9-13.4 3.3-1 0.5-6.3 2.4-11.8 4.2-5.5 1.8-15.2 5.7-21.5 8.5-6.3 2.9-15.3 7.2-20 9.6-4.7 2.5-12.3 7-17 10.1-4.7 3.1-14.6 10.5-22 16.4-7.4 5.9-16 13.3-19 16.4-3 3.1-9.8 10.3-15 16.1-5.3 5.7-11.9 13.3-14.6 16.9-2.8 3.6-8 11-11.5 16.5-3.6 5.5-8.8 14.1-11.6 19-2.9 4.9-7.6 14.2-10.6 20.5-3 6.3-8.2 19.6-11.6 29.5-3.3 9.9-7.1 22.3-8.4 27.5-1.4 5.2-3 12.4-3.6 16-0.7 3.6-1.5 7.4-1.7 8.5-0.3 1.1-1 5.1-1.5 9-0.5 3.9-1.4 11.9-1.9 18-0.5 6.1-1.3 14.8-1.8 19.5-0.6 5.5-1.7 10.1-3.2 13-1.2 2.5-4.8 8.8-7.8 14-3.1 5.2-9.5 16-14.2 24-4.8 8-13.1 22.4-18.6 32-7 12.4-10.4 19.5-11.6 24.5-1.2 4.7-1.6 8.8-1.2 12.5 0.3 3 1.5 8.4 2.7 12 1.2 3.6 4 9 6.2 12 2.3 3 6.1 7.1 8.5 9.2 2.5 2 7 4.7 10 6.1 3 1.4 8.2 3 11.5 3.6 3.3 0.6 7.5 1.1 9.3 1.1 1.7 0 5 0.9 7.2 2 2.2 1.1 4.9 3.5 6 5.3 1.9 3 2 5 2 34.7 0 17.3 0.5 34.6 1 38.5 0.5 3.9 2.1 11 3.5 16 1.5 5 4.5 12.6 6.7 17 2.2 4.4 5.3 9.8 6.8 12 1.5 2.2 5.8 7.3 9.6 11.4 3.8 4.1 9.6 9.5 12.9 12 3.3 2.5 9.6 6.4 14 8.8 4.4 2.3 10 4.9 12.5 5.8 2.5 0.9 8.7 2.7 13.8 4 8.3 2.3 11.1 2.5 28.9 2.5 12.2 0 23.9 0.6 30.6 1.5 5.9 0.8 13.5 2.4 16.9 3.6 3.5 1.1 9 3.4 12.3 5 3.3 1.7 7.9 4.5 10.2 6.2 2.3 1.8 5.9 5.9 8.1 9.2 2.2 3.3 4.7 8.3 5.5 11 0.9 2.8 1.9 8.1 2.2 12 0.4 3.9 1.1 8 1.6 9.3 0.5 1.2 2.4 3.1 4.2 4.2 1.7 1.1 4.3 2 5.7 2 1.4 0 4.1-1 6-2.2 2.3-1.6 3.8-3.6 4.6-6.3 0.8-2.9 0.9-6.4 0.3-12.5-0.5-4.7-1.7-10.7-2.6-13.5-0.8-2.7-2.5-6.8-3.5-9-1.1-2.2-4.4-7.1-7.3-11-2.9-3.9-7.7-8.9-10.6-11.1-3-2.3-7.9-5.6-10.9-7.2-3-1.7-8.6-4.3-12.5-5.7-3.9-1.5-11.3-3.8-16.5-5.1-8.4-2.2-12.7-2.6-36.5-3.3-22.9-0.7-28.2-1.2-35-3.1-4.4-1.2-10-3-12.5-4.1-2.5-1.1-8.1-4.4-12.5-7.4-4.4-2.9-9.8-7.3-12.1-9.7-2.2-2.3-5.9-7-8.1-10.3-2.2-3.3-5-7.8-6.1-10-1.1-2.2-2.9-7.1-4-11-1.1-3.9-2.5-10.3-3.1-14.2-0.6-4-1.1-20.6-1.1-36.8 0-16.2-0.5-31.6-1-34.3-0.6-2.6-2.5-7.2-4.3-10.2-1.8-3-5.7-7.4-8.9-10-3.1-2.5-8-5.3-11-6.4-2.9-1-8.9-2.2-13.3-2.6-4.7-0.4-9.6-1.5-12-2.7-2.2-1.1-5.3-3.6-6.9-5.4-1.5-1.9-3.5-5-4.3-6.9-0.8-1.9-1.6-5.8-1.6-8.5-0.2-3.9 0.5-6.5 3.1-11.5 1.8-3.6 7-12.9 11.5-20.6 4.5-7.8 14.5-24.9 22.2-38 7.7-13.2 14.9-26.4 16.1-29.4 1.2-3 2.7-8.6 3.3-12.5 0.6-3.9 1.5-13.8 2.1-22 0.6-8.3 2-20.2 3.1-26.5 1.1-6.3 2.8-15.1 3.9-19.5 1-4.4 3.5-13.3 5.4-19.8 2-6.4 5.6-16.6 8.1-22.7 2.5-6.1 6.4-14.7 8.6-19.3 2.3-4.5 7.1-13.1 10.7-19.2 3.6-6.1 8.2-13.3 10.1-16 1.9-2.8 5.3-7.5 7.5-10.5 2.3-3 8.9-10.9 14.7-17.5 5.8-6.6 13.5-14.5 17-17.6 3.5-3 12-9.8 18.9-15 6.9-5.2 16.3-11.8 21-14.6 4.7-2.8 12.1-6.9 16.5-9.1 4.4-2.2 13.2-6 19.5-8.5 6.3-2.6 15.1-5.7 19.5-7.1 4.4-1.3 12.4-3.3 17.8-4.5 5.3-1.1 15.4-2.8 22.5-3.6 7-0.8 16.3-1.5 20.7-1.5 5.9 0 8.9-0.5 11.5-1.8 2.4-1.3 4-3.1 4.9-5.8 1.3-3.4 1.3-4.4 0-7.8-0.9-2.6-2.5-4.5-4.9-5.7-2.5-1.4-5.3-1.9-10-1.7-3.6 0-10.8 0.4-16 0.9z"/><path class="a" d="m524 202c-5.2 2.2-14.1 6.3-19.7 9.2-5.7 2.9-11.3 6.1-12.5 7-1.3 0.9 4.4-1.7 12.7-5.7 8.3-4.1 18.8-9 23.5-11 4.7-1.9 7.8-3.4 7-3.4-0.8 0-5.8 1.8-11 3.9z"/><path class="c" d="m634 201c0 0.6-1.5 1.8-3.3 2.7-2.1 1.1-7.1 2-15.2 2.5-6.6 0.4-15.1 1-19 1.3-3.9 0.3-12.6 1.7-19.5 3.1-6.9 1.5-18 4.4-24.8 6.5-6.7 2.1-12.4 4.3-12.7 4.9-0.3 0.6-1 0.8-1.5 0.5-0.5-0.3-1-0.1-1 0.5 0 0.6-0.9 1-2 1-1.1 0-3.5 0.7-5.3 1.6-1.7 0.9-3.5 2.2-3.9 2.8-0.4 0.6-1.1 0.8-1.5 0.4-0.4-0.4-5.5 1.8-11.3 4.8-5.8 3.1-13.6 7.7-17.5 10.1-3.9 2.5-11.7 8.2-17.5 12.6-5.8 4.5-16.8 14.4-24.6 22.2-7.7 7.7-16.6 17.1-19.6 21-3 3.9-7.7 10.1-10.4 14-2.8 3.9-8 11.9-11.6 18-3.6 6.1-8.4 14.7-10.7 19.3-2.2 4.5-6.3 13.8-9.1 20.7-2.7 6.9-6.6 17.8-8.5 24.3-1.9 6.4-4.2 14.8-5 18.7-0.9 3.9-2.5 11.9-3.5 18-1 6.1-2.1 13.9-2.4 17.5-0.4 3.6-1.1 12.6-1.6 20-0.5 7.4-1.7 16-2.6 19-0.9 3-3.6 9.1-6.1 13.5-2.4 4.4-6.1 10.7-8.1 14.1-2 3.3-8.1 13.7-13.5 23-5.3 9.3-12.5 21.4-15.8 26.9-3.3 5.5-7.2 12.5-8.7 15.5-2 4-2.7 6.9-2.5 10.5 0 2.8 0.8 6.6 1.6 8.5 0.9 1.9 3.3 5.2 5.4 7.2 2.1 2 5.6 4.4 7.8 5.4 2.2 0.9 7.6 2 12 2.4 5.6 0.5 10 1.7 14.8 3.9 3.8 1.8 8.5 4.9 10.8 7.4 2.2 2.3 5.5 7.1 7.2 10.7l3.2 6.5 1.1 73c5.6 14 8 19.5 8.8 21.3 0.9 1.7 2 3.2 2.6 3.2 0.6 0 1 0.6 1 1.3 0.1 0.6 1.9 3 4.1 5.2 2.2 2.2 4 4.3 3.9 4.8 0 0.4 1.6 1.5 3.5 2.5 2 0.9 3.5 2 3.5 2.5 0 0.4 3.8 3.2 8.5 6.2 4.7 3 9.1 5.5 9.7 5.5 0.7 0 3.7 0.9 6.5 2 2.9 1.1 6.4 2 7.8 2 1.4 0 2.7 0.7 3 1.5 0.4 1.1 1 1.2 2.2 0.6 1-0.4 4.3-0.5 7.3-0.1 3 0.5 15.4 1.1 27.5 1.4 15 0.4 23.9 1.1 28 2.1 3.3 0.9 9.8 2.8 14.5 4.3 4.7 1.5 10.3 3.6 12.4 4.7 2.2 1.1 4.1 2.6 4.3 3.3 0.2 0.6-0.3 1.4-1 1.5-0.6 0.2-0.1 0.2 1.3 0 1.7-0.3 3.3 0.4 5 2.2 1.4 1.4 3 2.5 3.5 2.5 0.5 0 3.5 2.3 6.5 5.2 3 2.8 4.9 5.3 4.2 5.5-0.7 0.2-0.9 1-0.6 2.1 0.6 1.5 0.8 1.5 1.5 0.2 0.8-1.3 1-1.3 1.8 0 0.5 0.8 0.7 2.2 0.4 3-0.3 0.9 0.4 1.8 1.6 2.3 1.2 0.4 2.4 1.9 2.8 3.5 0.3 1.5 0.9 2.9 1.3 3.2 0.3 0.3 1.6 4.5 2.9 9.5 1.3 5 2.7 11 3.2 13.5 0.5 2.5 1 7.4 1.1 11 0.1 3.6-0.3 7.9-1 9.5-0.7 1.6-2.4 3.7-4 4.7-1.5 0.9-4.3 1.9-6.2 2.3-2.8 0.5-4.1 0.2-6.5-1.6l-3-2.3c4.1 4.7 4.2 5.6 3.6 15.1-0.5 9.3-0.8 10.4-3.3 13-1.5 1.5-2.8 3.1-2.8 3.6 0 0.4 1.3-0.7 2.9-2.3 2.3-2.4 3.8-3 7-3 2.3 0 5.5 0.7 7.1 1.5 1.6 0.8 3.7 2.9 4.5 4.5 0.8 1.6 1.5 4 1.5 5.3 0 1.2-0.7 4-1.4 6.2-0.9 2.3-2.3 4.3-3.5 4.8-1.2 0.4-2.1 0.9-2.1 1.2 0 0.3 15.3 0.5 34 0.5 31.5 0 34-0.1 34.5-1.7 0.3-1 0.6-31.2 0.8-67l0.2-65.3c-45.2-0.1-55.1-0.5-57.5-1.3-2-0.7-4.4-2.6-5.7-4.7-1.3-1.9-2.3-4.6-2.3-6 0-1.4 0.9-4 2-5.8 1.1-1.7 2.9-3.7 4-4.2 1.1-0.6 14.2-1.2 29.8-1.4 15.2-0.3 36-0.6 46.2-0.7l18.5-0.3-34-1.1c-1.1-7.8-1-11.5-0.5-13.3 0.9-2.9 0.8-3.2-1.3-3.7-1.2-0.3-18.7-0.5-39-0.5-20.2 0-37.5-0.4-38.5-0.9-0.9-0.5-2.6-2.1-3.6-3.7-1.5-2.3-2.1-5.9-2.8-16.9-0.4-7.7-1.3-15.7-1.8-17.8-0.6-2-1.7-3.9-2.5-4.2-0.8-0.3-2.6-0.5-4-0.5-1.5 0-3.9-1.4-6-3.5-3-3-3.5-4.2-3.5-8 0-4 0.5-5 4.5-9 2.5-2.5 4.5-5 4.5-5.5 0-0.5-1.4-5.2-3.1-10.3-1.7-5-5.6-14.6-8.8-21.2-3.1-6.6-8.3-16-11.4-21-3.1-5-7.3-11.7-9.4-15-2.1-3.3-6-9-8.8-12.8-2.7-3.7-7.2-9.8-9.8-13.5-2.7-3.7-8.4-11.9-12.8-18.2-4.5-6.3-10.5-15.8-13.4-21-2.9-5.2-7.3-14-9.6-19.5-2.3-5.5-5.7-15.9-7.5-23-1.7-7.1-3.9-17.8-4.8-23.8-0.9-6-1.6-17.1-1.6-25.2 0-8 0.7-19.6 1.5-25.8 0.8-6.1 2.4-15.3 3.5-20.2 1.1-4.9 2.8-11.7 3.9-15 1-3.3 3.1-9.1 4.6-13 1.4-3.9 4.9-11.3 7.7-16.5 2.8-5.2 8-14 11.7-19.5 3.6-5.5 9.7-13.6 13.5-18 3.8-4.4 10.8-11.6 15.5-16 4.8-4.4 12.9-11 18.1-14.6 5.2-3.6 13.5-8.9 18.5-11.7 5-2.7 14.2-7 20.5-9.5 6.3-2.5 16.7-5.7 23-7.1 6.3-1.4 14.9-3 19-3.6 4.1-0.5 12.2-1 18-1 5.8-0.1 11.4-0.4 12.4-0.8 1-0.4 2-1.8 2.2-3.2 0.2-1.4 0.6-13.9 0.9-27.8 0.3-13.8 0.3-25.2 0-25.2-0.3 0-0.5 0.4-0.5 1z"/><path class="a" d="m480.4 225.2c-4.3 2.9-8.1 5.5-8.4 5.8-0.3 0.4-2.5 2-5 3.7-2.5 1.7-9.4 7.3-15.5 12.6-6 5.2-14.8 13.5-19.5 18.3-4.7 4.9-9.6 10.3-11 11.9-1.4 1.7-3.9 4.8-5.5 7-1.7 2.3-0.4 1.3 3.1-2.5 3.2-3.5 10.2-11 15.4-16.7 5.2-5.6 12.7-12.8 16.5-16 3.9-3.2 10.8-8.8 15.5-12.4 4.7-3.7 11.7-8.8 15.5-11.4 3.9-2.5 7.2-4.9 7.4-5.1 0.2-0.2 0.2-0.4-0.1-0.4-0.2 0-4 2.3-8.4 5.2z"/><path class="b" d="m615.5 257.1c-9.3 0.4-19.2 1.5-26 2.9-6 1.2-16.2 4-22.5 6.2-6.3 2.1-17.4 6.8-24.5 10.3-8.4 4.2-16.9 9.4-23.9 14.7-6 4.6-15.2 12.3-20.4 17.3-5.2 4.9-13.5 14.4-18.5 21-5 6.6-10 13.6-11.2 15.5-1.2 1.9-4.5 8-7.3 13.5-2.7 5.5-6.2 12.9-7.6 16.5-1.4 3.6-3.7 10.3-5.1 15-1.4 4.7-3.2 11.4-4.1 15-0.8 3.6-2.1 11.6-2.9 17.7-0.8 6.2-1.5 17.8-1.5 25.8 0 8 0.7 19.1 1.5 24.7 0.9 5.7 2.4 13.9 3.5 18.3 1 4.4 3.5 12.7 5.5 18.5 1.9 5.8 6.7 16.8 10.5 24.5 4.2 8.4 10.5 18.8 15.7 26 4.8 6.6 13.9 19.4 20.3 28.5 6.4 9.1 13.8 19.9 16.5 24 2.7 4.1 8.6 14.7 13 23.5 4.5 8.8 9.5 20.4 11.3 25.7 1.8 5.4 3.2 10.9 3.2 12.3 0 1.4-0.5 2.5-1 2.5-0.5 0-2.6 1.3-4.5 3-3 2.6-3.5 3.6-3.5 7.5 0 3.3 0.6 5.3 2.5 7.5 1.7 2 3.8 3.2 6.2 3.6 2.1 0.3 4.6 0.8 5.5 1 1 0.2 2 1.2 2.3 2.1 0.2 1 0.9 9 1.5 17.8 0.7 10.9 1.5 16.7 2.5 18.2 0.8 1.3 2.9 3 4.5 3.8 2.6 1.3 11.9 1.5 68.1 1.2l65.1-0.2c4.8-5.4 5.9-7.9 6.2-10.8 0.3-2.3 1-10.3 1.6-17.7 0.6-7.4 1.2-13.6 1.3-13.8 0.1-0.1 1.3-0.4 2.7-0.6 1.4-0.1 3.9-0.6 5.5-1 1.8-0.4 3.9-2 5.2-3.9 1.4-1.9 2.2-4.6 2.2-6.7 0-1.9-0.4-4.4-0.8-5.5-0.5-1.1-2.8-3.2-5.2-4.6-3.5-2-4.3-3-4.1-5 0.2-1.3 1.2-5.3 2.4-8.9 1.1-3.6 3.8-10.5 5.9-15.5 2.2-5 5.8-12.8 8.2-17.5 2.4-4.7 6.5-12.3 9.2-17 2.6-4.7 15-23.8 27.3-42.5 12.4-18.7 24.7-38 27.3-43 2.6-5 6.9-14.2 9.4-20.5 2.5-6.3 5.9-16 7.4-21.5 1.6-5.5 3.4-13.2 4.2-17 0.8-4.2 1.3-13.9 1.3-24 0-9.4-0.6-20.4-1.3-24.5-0.7-4.1-2.3-12-3.6-17.5-1.3-5.5-3.8-14.1-5.5-19-1.7-5-5.2-14-7.7-20-2.7-6.2-8-15.8-12.2-22-4-6.1-10.9-15.3-15.2-20.5-4.2-5.2-11.7-12.9-16.6-17.2-4.8-4.2-10.6-9-12.8-10.8-2.2-1.7-6.5-4.9-9.5-7.2-3-2.2-11.4-6.9-18.5-10.4-7.1-3.5-17.3-7.9-22.5-9.7-5.2-1.9-13.3-4.3-18-5.5-4.7-1.1-11.6-2.5-15.5-3.1-3.9-0.6-9.5-1.2-12.5-1.3-3-0.2-12.2 0-20.5 0.3z"/><path class="d" d="m573.3 701.2c-0.8 0.9-0.8 2.4-0.2 4.8 0.5 1.9 1 3.6 1.1 3.7 0.2 0.1 22.2 0.3 49.1 0.3 26.8 0.1 49.1-0.2 49.7-0.7 0.5-0.4 1.1-2.6 1.2-4.8l0.3-4c-89.3-0.5-100.3-0.2-101.2 0.7z"/><path class="a" d="m612.2 669.5l0.3 7 22.5 0.5c0.1-11.9-0.1-12.4-1.5-11-0.9 0.8-1.6 3-1.5 4.8 0 2.4-0.4 3.2-1.8 3.1-1.3 0-1.4-0.2-0.2-0.6 1.3-0.5 1.3-0.6 0-1.4q-1.5-0.9-0.3-0.9c0.7 0 1.3-0.7 1.3-1.5q0-1.5-3.3-1.6c-1.7-0.1-5.4-0.2-8.2-0.3-4.2-0.1-5.1-0.5-6.2-2.6-1.2-2.2-1.3-1.8-1.1 4.5z"/><path class="c" d="m614 593c-1.9 1.9-2 3.3-2 35.8 0 25.2 0.3 34.3 1.3 36.2 1.1 2.1 2 2.5 6.2 2.6 2.8 0.1 6.5 0.2 8.3 0.3q3.2 0.1 3.2 1.6c0 0.8-0.6 1.5-1.3 1.5q-1.2 0 0.3 0.9c1.3 0.8 1.3 0.9 0 1.4-1.2 0.4-1.1 0.6 0.2 0.6 1.4 0.1 1.8-0.7 1.8-3.1-0.1-1.8 0.6-4 1.5-4.8 1.4-1.3 1.6-5.8 1.5-37.3 0-34.7-0.1-35.7-2-36.7-1.1-0.5-5.4-1-9.5-1-6.2 0-7.9 0.4-9.5 2z"/><path class="a" d="m595 539.8c0 0.4 2 3.9 4.6 7.7 2.5 3.9 6.2 10 8 13.8l3.4 6.7 25.4-0.5c6.4-11.6 9.5-16.8 10.9-19 1.5-2.2 3.4-5 4.2-6.2 0.8-1.3 1.2-2.5 0.8-2.7-0.5-0.2-3.9 0.9-7.8 2.6-6.9 2.9-7.3 2.9-22 2.6-14.1-0.3-15.3-0.5-20.5-3.1-3-1.5-5.8-2.7-6.2-2.7-0.5 0-0.8 0.3-0.8 0.8z"/><path class="d" d="m603.3 280.9c-3.3 0.3-6.4 0.9-6.9 1.4-0.4 0.4-0.2 0.7 0.4 0.7 0.7 0 1.2 0.5 1.2 1 0 0.6-0.7 1-1.5 1-0.8 0-1.6-0.5-1.7-1.1q-0.2-1.2-4.3-0.5c-2.2 0.4-7.8 1.8-12.5 3.3-4.7 1.4-11.9 4.1-16 6-4.1 1.8-8.2 3.8-9 4.3-0.8 0.6-2.6 1.5-4 2.1-1.4 0.6-6.3 3.6-11 6.7-4.6 3.2-11.4 8.2-15 11.2-3.6 3-9 8.2-12 11.4-3 3.3-6.6 7.2-8 8.7-1.4 1.6-3.5 4.2-4.7 5.9-1.4 1.7-2.1 3.7-1.7 4.8q0.6 1.7-0.3 0.4c-0.6-1-1.2-0.9-2.4 0.5-0.9 1-2.6 3.6-3.8 5.8-1.3 2.2-3.3 5.8-4.7 8-1.3 2.2-3.2 5.8-4.3 8-1 2.2-2.8 6-3.9 8.5-1.2 2.5-2.8 6.5-3.7 9-0.9 2.5-2.5 7.7-3.6 11.5-1.1 3.9-2.9 11.3-4 16.5-1.3 6.1-2.2 15.6-2.6 26.5-0.4 12.9-0.2 19.6 1.1 28 0.9 6.1 2.5 14.6 3.7 19 1.1 4.4 3.8 12.5 5.9 18 2.2 5.5 6.5 14.8 9.7 20.8 3.2 5.9 9.4 15.7 13.8 21.9 4.4 6.1 9.7 13.4 11.7 16.2 2 2.8 8.6 12.3 14.6 21.1 6 8.8 13.1 19.6 15.7 24 2.6 4.4 6.4 11.4 8.5 15.5 2 4.1 5.4 11.8 7.5 17 2.1 5.2 5.5 14.5 7.5 20.5l3.7 11c15.4 0.4 20.4 0 21.1-0.5 0.9-0.8 1.2-12 1.2-50v-49c-4.5-8.9-7.5-14-9.7-17.2-2.1-3.1-6.8-8.9-10.4-13-3.6-4-8.3-8.6-10.5-10.1l-3.9-2.9c-11.6 2.7-18.7 5.5-23.2 7.9-5.2 2.7-9.6 4.3-11.8 4.3-2.3 0-4.6-0.9-6.5-2.5-1.7-1.4-3.3-3.9-3.6-5.7-0.4-1.8-0.3-4.6 0.1-6.3 0.4-1.6 1.9-4.1 3.4-5.5 1.5-1.4 5.8-4 9.7-5.9 3.8-1.9 10.3-4.5 14.4-5.8 6.1-2 10.3-2.6 22-3 9.1-0.3 17.3-0.1 22 0.7 4.1 0.7 10.9 2.3 15 3.6 4.1 1.2 10 3.4 13 4.8 4.6 2.2 7 2.6 14.5 2.6 8 0 10-0.4 18-3.7 5-2 12.2-4.5 16-5.7 5.9-1.7 9.7-2.1 25-2.1 14.4 0 19.4 0.4 25 1.9 3.9 1 10.6 3.5 15 5.6 4.4 2.1 9.3 4.9 10.9 6.2 1.6 1.2 3.5 3.8 4.3 5.6 1 2.4 1 4.2 0.3 7.2-0.7 2.9-1.9 4.6-4.2 6-1.8 1.1-4.8 2-6.5 2-2 0-5.8-1.4-9.3-3.5-3.3-1.9-9.7-4.7-14.2-6.1-4.6-1.5-9.4-2.4-10.8-2.1-1.4 0.3-6.3 4.5-11 9.4-4.7 4.8-10.4 11.3-12.6 14.3-2.3 3-5.7 8.7-7.8 12.5l-3.6 7c0.2 65.9 0.5 88.2 0.9 92l0.6 7c19 0.5 19.5 0.4 20.4-1.7 0.5-1.3 2.1-6.3 3.6-11.3 1.6-5 4.2-12.8 6-17.5 1.8-4.7 6.4-14.8 10.2-22.5 3.9-7.7 9.5-18 12.5-23 3-5 15-23.4 26.7-41 12.6-19 23.8-37.1 27.5-44.5 3.4-6.9 7.6-16.1 9.3-20.5 1.7-4.4 4.2-12.7 5.6-18.5 1.4-5.8 2.8-14.3 3.1-19 0.4-4.7 0.2-13.9-0.4-20.5-0.6-6.6-1.7-15.6-2.6-20-0.9-4.4-3.2-13.4-5.1-20-2-6.6-4.2-12.7-4.9-13.5-0.7-0.8-1.4-2.1-1.4-2.7 0-0.7-1.6-4.6-3.6-8.5-1.9-4-4.5-8.9-5.6-10.8-1.1-1.9-3.3-5.3-4.7-7.5-1.4-2.2-4.3-6.2-6.5-9-2.1-2.7-6.5-7.8-9.7-11.2-3.8-4.1-6.3-6-7.1-5.5q-1.3 0.7-0.5-0.5c0.4-0.8-0.9-2.8-3.5-5.4-2.4-2.3-7.7-6.7-11.8-9.8-4.1-3.1-9.7-7-12.5-8.7-2.7-1.6-8.5-4.7-12.7-6.7-4.3-2-8.4-3.7-9-3.7-0.7 0-2.2-0.7-3.3-1.6-1.3-1-3.3-1.3-6-1-2.8 0.4-3.2 0.3-1.5-0.3 2.5-0.7 2.4-0.8-1-1.9-1.9-0.6-6.5-1.8-10.2-2.7-3.8-0.8-7.3-1.2-7.9-0.7-0.6 0.4-1.5 0-2-0.8-0.6-1-3.3-1.7-8.6-2.2-4.3-0.4-13.4-0.6-20.3-0.6-6.9 0-15.3 0.3-18.7 0.7z"/><path class="b" d="m561.5 355.1c-3.3 0.5-9.1 1.8-13 3-3.9 1.1-10.1 3.6-14 5.5-3.9 1.9-7.7 4-8.6 4.7-0.8 0.6-2.3 2.3-3.2 3.7-1.2 1.8-2.9 14.7-6.6 49-2.8 25.6-5.6 50.1-6.1 54.5-0.6 4.4-1 9.9-1 12.2 0 3.3 0.7 5 2.7 7.4 1.9 2.1 4.1 3.2 6.8 3.6 3.3 0.5 5.1 0 10.5-3 3.6-2 9.2-4.5 12.5-5.7 3.3-1.1 9.6-2.5 14-3 5-0.6 11.3-0.6 16.8 0 4.8 0.6 12.4 2.2 16.9 3.6 4.6 1.5 11 4 14.3 5.5 5.8 2.8 6.6 2.9 20.5 2.9 14.4 0 14.6-0.1 21.5-3.4 3.9-1.8 10.1-4.3 14-5.4 3.9-1.2 10.8-2.6 15.5-3.1 5.4-0.7 11.4-0.8 16.5-0.2 4.4 0.5 10.9 1.9 14.5 3.1 3.6 1.1 8.8 3.5 11.5 5.2 2.7 1.7 6.6 3.3 8.5 3.5 2.1 0.3 4.7-0.1 6.5-0.9 1.6-0.9 3.8-3.2 4.7-5.2 1.7-3.5 1.7-4.5-1.1-30.4-1.7-14.7-4.2-37.7-5.6-51.2-1.4-13.5-3-27.4-3.5-31-0.5-3.6-1.8-7.6-2.8-9-1.1-1.4-5-4.2-8.8-6.2-3.8-2-10.5-4.8-14.9-6.2-4.4-1.4-11.8-3-16.5-3.7-5.1-0.7-12.3-0.9-18-0.5-5.2 0.3-13.1 1.5-17.5 2.5-4.4 1.1-11.7 3.3-16.3 5l-8.2 3.1c-19-6.4-28.5-8.9-33.5-9.6-5-0.8-12.1-1.3-16-1.3-3.9 0.1-9.7 0.5-13 1z"/><path class="a" d="m548.5 454.7c-1.6 0.2-3.7 0.7-4.5 1-0.8 0.3-2.1 0.5-2.8 0.5-0.6-0.1-1.4 0.7-1.7 1.8-0.3 1.1-1 2-1.5 2-0.5 0-1-1.1-1-2.5 0-1.4-0.5-2.5-1-2.5-0.5 0-1 1.6-1 3.5 0 1.9-0.2 4.1-0.5 4.8-0.3 0.6-0.1 1.8 0.3 2.5 0.6 1.1 1.9 1.1 7.7-0.2 3.9-0.8 10.4-1.8 14.5-2.1 4.1-0.4 11.8-0.2 17 0.4 5.2 0.6 12.2 1.8 15.5 2.6 3.3 0.8 9.5 2.9 13.8 4.5 4.2 1.7 7.9 2.9 8.1 2.8 0.2-0.2 0.6-3.7 0.9-7.8 0.4-6.7 0.3-7.3-0.9-5.5-0.8 1.1-1.5 2.4-1.7 2.9-0.1 0.5-1.1 0.4-2.2-0.2-1.1-0.6-3.6-1.7-5.5-2.5-1.9-0.8-5.1-2-7-2.6-1.9-0.6-7.1-1.7-11.5-2.6-4.8-0.9-12.8-1.4-20-1.3-6.6 0-13.4 0.3-15 0.5z"/><path class="c" d="m598.6 463.1c-1.1 0.6-3.6 0.8-5.5 0.5l-3.6-0.6c7.5 3.6 8.2 3.7 9.8 2.4 0.9-0.8 2.2-1.4 2.7-1.4 0.6 0 0.8-0.5 0.5-1-0.3-0.6-0.8-1-1.3-1-0.4 0-1.6 0.5-2.6 1.1z"/><path class="a" d="m668.5 454.5c-4.4 0.7-10 1.8-12.5 2.5-2.5 0.7-4.9 1.7-5.5 2.2-0.5 0.4-1.9 0.8-3.2 0.8-1.3 0-2.5 0.4-2.8 1-0.3 0.6-1.6 1.4-3 2-2 0.8-2.5 1.7-2.5 4.5 0 1.9-0.5 3.5-1 3.5-0.5 0-0.7-1-0.4-2.3 0.3-1.2-0.1-3.5-1-5.2l-1.5-3c-0.1 9.7 0.2 12.7 0.7 13 0.4 0.2 3.4-0.6 6.7-1.9 3.3-1.3 10.5-3.7 16-5.2 8.6-2.3 11.9-2.7 23.5-2.8 10 0 15.7 0.5 21.7 2 4.5 1 8.5 1.7 8.8 1.4 0.3-0.3 0.3-3.4-0.1-7-0.4-4.4-0.9-6-1.5-5-0.5 0.8-0.9 2.9-1 4.5l-0.1 3c-1.3-5.8-1.7-6-7.8-7.1-3.6-0.6-10.8-1.4-16-1.7-5.4-0.2-13 0.1-17.5 0.8z"/><path class="c" d="m661 462c0 0.6 1.4 1 3 1 1.6 0 3.2-0.4 3.5-1 0.3-0.6-1-1-3-1-1.9 0-3.5 0.4-3.5 1z"/><path class="a" d="m636 385.2c-1 0.8-1.3 2.8-1 6.8l0.4 5.5c0.5-9.4 1.1-10.8 2.9-12 1.5-1.1 1.7-1.5 0.7-1.5-0.9 0-2.2 0.5-3 1.2z"/><path class="c" d="m661.5 377.9c-3.3 0.4-7 1.2-8.3 1.9-1.2 0.6-2.7 1-3.2 0.7-0.5-0.3-2.9 0.3-5.2 1.2-2.4 0.9-5.4 2.7-6.8 4l-2.5 2.3c-0.7 68-0.6 71.8 1 75 0.9 2 1.4 4.5 1.1 5.8-0.3 1.2-0.1 2.2 0.4 2.2 0.5 0 1-1.6 1-3.5 0-2.8 0.5-3.7 2.5-4.5 1.4-0.5 2.7-1.4 3-2 0.3-0.5 1.5-1 2.8-1 1.3 0 2.7-0.4 3.2-0.9 0.6-0.4 3.7-1.5 7-2.4 3.3-0.9 9.4-2 13.5-2.6 4.8-0.6 11.6-0.6 19 0 6.3 0.5 13.1 1.3 15 1.7 2.8 0.6 3.6 1.4 4.1 3.7l0.7 3c0.1-4.3 0.6-6.3 1.1-7.2 0.6-1.1 0.6-4.9 0.1-9.8-0.5-4.4-1.8-17-3-28-1.1-11-2.3-22.4-2.5-25.2-0.4-3.8-1.1-5.9-2.7-7.4-1.3-1.1-3.9-2.7-5.8-3.5-1.9-0.8-3.7-1.2-4-0.9-0.3 0.2-1.6-0.2-3-0.9-1.4-0.7-7-1.6-12.5-1.9-5.5-0.2-12.7-0.2-16 0.2zm-96.5-0.3c-2.5 0.3-5.4 0.9-6.5 1.5-1.1 0.5-2.7 1.1-3.5 1.3-0.8 0.1-2.7 0.8-4.2 1.4-1.6 0.7-3.9 1.7-5.3 2.2-1.8 0.7-2.6 1.9-2.9 4.3-0.3 1.7-1 8.4-1.6 14.7-0.6 6.3-1.5 15.3-2 20-0.5 4.7-1.2 11-1.4 14-0.3 3-0.8 6.9-1.1 8.5-0.4 1.7-0.4 5.6-0.1 8.8 0.3 3.1 1.1 5.7 1.6 5.7 0.5 0 1.2-1 1.4-2.2 0.3-1.5 0.9-2.1 1.8-1.6 0.7 0.4 1.8 0.2 2.3-0.3 0.5-0.6 7.5-1.3 15.5-1.6 9.3-0.4 17-0.1 21.5 0.6 3.9 0.7 9.5 1.9 12.5 2.8 3 0.8 7.1 2.1 9 3 1.9 0.8 4.3 1.9 5.3 2.4 0.9 0.5 1.9 0.8 2.1 0.7 0.2-0.2 0.8-1.3 1.5-2.5 0.7-1.6 1.1-13.5 1.1-38.5 0-28.2-0.2-36.5-1.2-37.1-0.7-0.5-3.1-1.7-5.3-2.7-2.2-1.1-5.4-2.1-7-2.3-1.6-0.3-4.1-0.9-5.5-1.5-1.4-0.5-7.2-1.2-13-1.5-5.8-0.3-12.5-0.3-15-0.1z"/><path class="c" d="m519 323c-0.5 1.1-0.8 2.3-0.5 2.8 0.2 0.4 1.2 0 2-0.8 0.9-0.8 1.6-2.1 1.5-2.8 0-0.6-0.4-1.2-1-1.2-0.5 0-1.4 0.9-2 2z"/><path class="a" d="m684 267.3c4.7 1.7 14.6 6.1 22 9.9 7.4 3.7 12.4 5.8 11 4.7-1.4-1-7-4.1-12.5-6.9-5.5-2.7-13.6-6.3-18-8-4.4-1.7-8.7-3-9.5-3-0.8 0.1 2.3 1.5 7 3.3z"/><path class="a" d="m454 276.8l-6.5 6.7c10.5-10.1 13.5-13.1 13.5-13.3 0-0.1-0.1-0.2-0.3-0.2-0.1 0-3.2 3-6.7 6.7z"/><path class="a" d="m720.1 284.6c0.4 0.5 2.6 2.2 5 3.9 2.4 1.6 7.3 5.4 10.9 8.4 3.6 3 9.1 7.7 12.3 10.5 3.2 2.8 9.3 9.4 13.6 14.6 4.3 5.2 10.1 13 13 17.2 2.8 4.3 5.3 7.8 5.6 7.8 0.3 0-1.2-2.7-3.3-6.1-2-3.3-7.3-10.6-11.8-16.2-4.5-5.6-11.7-13.6-16-17.7-4.4-4.1-9.3-8.6-10.9-10-1.7-1.4-5.3-4.1-8-6-2.8-2-6.3-4.4-8-5.4-1.6-1-2.7-1.4-2.4-1z"/><path class="a" d="m401.7 302.8c-1.9 2.6-5.4 8.1-7.9 12.2-2.5 4.1-6.3 10.9-8.6 15-2.3 4.1-4.2 7.9-4.2 8.5 0 0.6 3.1-4.4 6.8-11 3.8-6.6 9.4-15.9 12.4-20.8 3.1-4.8 5.5-8.7 5.3-8.7-0.2 0-1.9 2.1-3.8 4.7z"/><path class="c" d="m390.2 319.3c-0.5 0.6-2.1 3.6-3.6 6.4-1.4 2.9-2.4 5.3-2.1 5.3 0.3 0 2-2.9 3.8-6.5 1.8-3.6 3.2-6.5 3.1-6.5-0.1 0-0.6 0.6-1.2 1.2z"/><path class="a" d="m789.5 365c2 4.7 4.8 11.6 6.1 15.5 1.4 3.9 3.6 10.6 4.9 15 1.3 4.4 2.4 7.2 2.4 6.3 0.1-1-1.4-6.9-3.3-13.1-1.9-6.1-5.3-15.5-7.6-20.7-2.3-5.2-4.6-9.9-5.1-10.5-0.6-0.6 0.6 2.8 2.6 7.5z"/><path class="a" d="m366.8 371.2c-2.6 6.8-5.5 15.4-6.6 19.3-1.1 3.9-2.8 10-3.8 13.7-1.1 3.7-1.7 7-1.4 7.3 0.3 0.2 1.4-3 2.5-7.3 1-4.2 4.6-16 8-26.2 3.3-10.2 6-18.6 6-18.8 0-0.1-2.2 5.3-4.7 12z"/><path class="c" d="m807.2 467c-0.1 1.4-0.5 4.1-0.8 6-0.5 2.6-0.4 3.2 0.5 2.5 0.7-0.6 1-3 0.8-6-0.2-2.8-0.4-3.9-0.5-2.5z"/><path class="a" d="m802.1 486c-1.2 4.7-4.3 13.7-6.8 20-2.5 6.3-6.1 14.5-7.9 18.3-1.9 3.7-3.2 6.7-2.9 6.7 0.3 0 2.3-3.6 4.5-8 2.2-4.4 5.4-11.5 7.1-15.8 1.7-4.2 4.4-12 6-17.2 1.6-5.2 2.8-10.2 2.7-11-0.2-0.8-1.4 2.3-2.7 7z"/><path class="a" d="m343.7 485.8c-1.4 3.1-5.4 10.4-8.8 16.2-3.4 5.8-8.3 14.3-11 19-2.7 4.7-4.8 8.6-4.7 8.7 0.2 0.1 3.1-4.4 6.4-10 3.4-5.6 8.4-14 11.2-18.7 2.8-4.7 6.2-11.1 7.6-14.3 1.4-3.1 2.5-5.9 2.3-6.2-0.2-0.2-1.5 2.1-3 5.3z"/><path class="a" d="m306 551.3c-3.3 5.6-8.1 14.3-10.6 19.2-2.6 5.1-4.7 10.9-5 13.5-0.4 4-0.2 3.7 1.3-2 1.1-4.1 5.4-12.8 11.2-23 5.2-9.1 9.5-16.8 9.7-17.2 0.2-0.5 0.1-0.8-0.1-0.8-0.2 0-3.1 4.6-6.5 10.3z"/><path class="a" d="m762.2 564.8c-6.4 9.7-12.5 18.9-13.5 20.5-0.9 1.5-1.5 2.7-1.2 2.7 0.3 0 6.3-8.7 13.3-19.2 7.1-10.6 13.1-19.9 13.5-20.5 0.3-0.7 0.4-1.3 0.2-1.3-0.3 0-5.8 8-12.3 17.8z"/><path class="a" d="m739.3 599.8c-3.8 5.9-8.4 13.4-10.2 16.7-1.7 3.3-2.4 5.1-1.6 4 0.9-1.1 3.4-5.1 5.7-9 2.2-3.8 5.9-9.9 8.3-13.5 2.3-3.6 4.4-7.1 4.8-7.7 0.3-0.7 0.5-1.3 0.3-1.3-0.2 0-3.5 4.8-7.3 10.8z"/><path class="a" d="m290.1 596.5c-0.1 2.2 0.6 6.1 1.4 8.8 0.8 2.6 1.7 4.6 2 4.4 0.3-0.1 0-1.6-0.6-3.2-0.6-1.6-1.5-5.5-1.9-8.5-0.7-5-0.8-5.1-0.9-1.5z"/><path class="a" d="m294.3 611.6c-0.2 0.5 0.7 2.5 2 4.5 1.2 2 3.3 4.9 4.7 6.5 1.4 1.6 4.5 4.5 7 6.5 2.5 2 6.4 4.6 8.7 5.8 2.4 1.1 4.9 2.1 5.5 2.1 0.7 0-1.4-1.3-4.7-2.9-3.3-1.6-8-4.6-10.5-6.8-2.5-2.2-6.3-6.8-8.5-10.2-2.2-3.5-4.1-5.9-4.2-5.5z"/><path class="a" d="m340.5 640c1.6 0.4 4.4 1.4 6 2.3 1.6 0.8 3.7 3 4.6 4.9 0.9 1.8 1.9 4 2.2 4.8 0.4 1.1 0.6 0.9 0.6-0.5 0.1-1.1-0.8-3.5-1.9-5.3-1.1-1.7-3.8-4.1-6-5.2-2.2-1.1-5-2-6.3-1.9-1.8 0.1-1.6 0.3 0.8 0.9z"/><path class="a" d="m711.3 652.7c-1.1 2.6-3 7.7-4.1 11.3-1.2 3.6-2.2 7.6-2.4 8.9-0.2 2 0.6 3 4.1 5 2.4 1.4 4.7 3.5 5.2 4.6 0.4 1.1 0.8 3.6 0.9 5.5 0 2.1-0.8 4.6-2 6.2-1.1 1.6-1.8 3-1.5 3.3 0.3 0.3 1.4-1 2.5-2.8 1.1-1.7 2-4.1 2.1-5.2 0.1-1.1 0-2.9-0.1-4-0.1-1.1-0.8-3.1-1.6-4.5-0.8-1.4-2.7-3.3-4.2-4.2-1.5-1-3-1.4-3.5-1-0.4 0.4-0.7-0.5-0.7-2.1 0-1.5 1.2-6.4 2.6-11 1.5-4.5 3.3-9.4 4-11 0.8-1.5 1.3-2.9 1.1-3.2-0.2-0.3-1.2 1.6-2.4 4.2z"/><path class="c" d="m353.4 686c0 18.4 0.2 26.1 0.3 17 0.2-9.1 0.2-24.1 0-33.5-0.1-9.4-0.3-1.9-0.3 16.5z"/><path class="a" d="m700.2 699.8c-0.7 0.4-1.4 3.9-1.7 7.7l-0.4 7c1.6-10.1 2.6-13.3 3.2-13.7 0.7-0.4 0.9-0.9 0.6-1.2-0.3-0.3-1.1-0.2-1.7 0.2z"/><path class="a" d="m379.1 722.5c-0.1 0.5 0.9 4.1 2 8 1.2 3.9 3 8.8 4.1 11 1.1 2.2 3.9 6.7 6.1 10 2.2 3.3 5.9 8 8.1 10.3 2.3 2.4 7.7 6.8 12.1 9.7 4.4 3 10 6.3 12.5 7.4 2.5 1.1 8.1 2.9 12.5 4.1 6.8 1.9 12.1 2.4 35 3.1 23.8 0.7 28.1 1.1 36.5 3.3 5.2 1.3 12.6 3.6 16.5 5.1 3.9 1.4 9.5 4 12.5 5.7 3 1.6 7.7 4.7 10.5 6.8 2.7 2.1 7.1 6.4 9.6 9.7 2.6 3.2 5.9 7.8 7.4 10.3l2.7 4.5c-1.1-6.2-1.7-8.2-2.1-8.5-0.5-0.3-1.1-1.7-1.4-3.2-0.4-1.6-1.6-3.1-2.8-3.5-1.2-0.5-1.9-1.4-1.6-2.3 0.3-0.8 0.1-2.2-0.4-3-0.8-1.3-1-1.3-1.8 0-0.7 1.3-0.9 1.3-1.5-0.2-0.3-1.1-0.1-1.9 0.6-2.1 0.7-0.2-1.2-2.7-4.2-5.5-3-2.9-6-5.2-6.5-5.2-0.5 0-2.1-1.1-3.5-2.5-1.7-1.8-3.3-2.5-5-2.2-1.4 0.2-1.9 0.2-1.3 0 0.7-0.1 1.2-0.9 1-1.5-0.2-0.7-2.1-2.2-4.3-3.3-2.1-1.1-7.7-3.2-12.4-4.7-4.7-1.5-11.2-3.4-14.5-4.3-4.1-1-13-1.7-28-2.1-12.1-0.3-24.5-0.9-27.5-1.4-3-0.4-6.3-0.3-7.3 0.1-1.2 0.6-1.8 0.5-2.2-0.6-0.3-0.8-1.6-1.5-3-1.5-1.4 0-4.9-0.9-7.8-2-2.8-1.1-5.8-2-6.5-2-0.6 0-5-2.5-9.7-5.5-4.7-3-8.5-5.8-8.5-6.2 0-0.5-1.5-1.6-3.5-2.5-1.9-1-3.5-2.1-3.5-2.5 0.1-0.5-1.7-2.6-3.9-4.8-2.2-2.2-4-4.6-4.1-5.2 0-0.7-0.5-1.3-1-1.3-0.6 0-1.9-1.9-3-4.2-1-2.4-3.1-7-4.4-10.3-1.4-3.3-2.5-5.5-2.5-5z"/><path class="c" d="m485.2 783.2c-0.9 0.4 1.7 0.6 5.8 0.6 4.1 0 6.8-0.2 6-0.4-0.8-0.1-3.4-0.4-5.8-0.6-2.3-0.2-5 0-6 0.4z"/><path class="c" d="m439.1 781.6c-0.1 0.5 2.7 1.2 6.1 1.7 3.5 0.4 7.2 0.7 8.3 0.6 1.1-0.1 0.2-0.5-2-1-2.2-0.5-5.8-1.2-8.1-1.5-2.3-0.4-4.2-0.3-4.3 0.2z"/><path class="a" d="m355.1 725c-0.1 0.8 0.6 4.2 1.4 7.5 0.9 3.3 3 9.6 4.7 14 1.8 4.4 5.8 11.8 8.9 16.5 3 4.7 8.7 11.6 12.6 15.5 3.8 3.9 9.4 8.9 12.4 11.1 3 2.3 8.8 5.9 12.9 8.1 4.1 2.2 10.2 4.9 13.5 6 3.3 1.1 8 2.6 10.5 3.3 2.5 0.7 5.2 1 6 0.7 1.1-0.4 0.9-0.6-0.5-0.6-1.1-0.1-5.8-1.3-10.5-2.7-4.7-1.4-12.3-4.6-17-6.9-4.7-2.4-11.4-6.6-15-9.3-3.6-2.7-9.6-8.2-13.4-12.3-3.8-4.1-8.1-9.2-9.6-11.4-1.5-2.2-4.6-7.6-6.8-12-2.2-4.4-5.3-12.3-6.7-17.5-1.5-5.2-2.8-10-3-10.5-0.2-0.5-0.4-0.3-0.4 0.5z"/><path class="a" d="m660.5 743l-28 0.5c43.9 0.4 55.6 0.1 56.5-0.5 0.8-0.5 1-0.9 0.5-0.8-0.5 0.2-13.6 0.5-29 0.8z"/><path class="a" d="m631.2 762.1c-0.9 0.4 7.9 0.9 19.5 1l21.3 0.4c5 5.1 5.5 6.4 5.5 10.6 0 4.5-0.4 5.4-3.5 8.1-2.5 2.3-3 3-1.5 2.7 1-0.2 3-2 4.2-3.9 1.3-1.9 2.3-5 2.3-6.8 0-1.7-0.6-4.4-1.4-6-0.7-1.5-2.2-3.4-3.1-4.2-1.4-1.2-6-1.6-21.7-2-10.9-0.3-20.7-0.2-21.6 0.1z"/><path class="b" d="m583 763.1c-3.6 0.3-7.3 1-8.4 1.5-1 0.5-2.7 2.3-3.7 3.9-1 1.6-1.9 4.1-1.9 5.5 0 1.4 1 4.1 2.3 6 1.3 2.1 3.7 4 5.7 4.7 2.3 0.8 10.9 1.2 24 1.2 11.3 0.1 31.8-0.2 45.5-0.6l25-0.7c5.6-5 6-6.2 6-10.4 0-4-0.5-5.6-2.5-7.6-1.4-1.5-3.9-2.9-5.5-3.2-1.6-0.2-20.3-0.6-41.5-0.7-21.2-0.1-41.4 0.1-45 0.4z"/><path class="a" d="m464 809.7c4.7 0.2 11.9 0.2 16 0 4.1-0.1 0.3-0.3-8.5-0.3-8.8 0-12.2 0.2-7.5 0.3z"/><path class="a" d="m535.1 828c3.6 3.6 7.5 8.6 8.7 11.3 1.2 2.6 2.8 7.3 3.6 10.4 0.8 3.3 1.5 4.7 1.5 3.3 0.1-1.4-0.7-5-1.7-8-1-3-3.4-7.7-5.3-10.5-1.9-2.7-4.3-5.8-5.4-6.8-1.1-1-3.4-2.8-5-4-1.6-1.2 0 0.8 3.6 4.3z"/><path class="a" d="m549.1 861.3c0 2 0.4 4.7 0.9 6 0.6 1.2 2.5 3.2 4.3 4.4 1.8 1.3 4.1 2.3 5.2 2.3 1.3 0 0.5-0.7-2-1.9-2.2-1-4.6-2.4-5.2-3.2-0.7-0.8-1.7-3.6-2.2-6.4-0.8-4.7-0.9-4.8-1-1.2z"/><path class="a" d="m552 898.9c-1.6 1.6-2.9 4-2.9 5.3 0 2.1 0.1 2 1.3-0.7 0.7-1.6 2.2-3.7 3.2-4.6 1.1-0.9 2.6-1.9 3.4-2.2 1.1-0.4 1.1-0.6-0.3-0.6-1-0.1-3.1 1.2-4.7 2.8z"/><path class="b" d="m556.3 897c-1.2 0.4-3.1 2.1-4.3 3.7-1.1 1.5-2.3 4-2.5 5.5-0.3 1.6 0 3.8 0.6 5 0.6 1.3 2.1 3.3 3.3 4.6 1.1 1.2 3.5 2.5 5.1 2.8 1.8 0.4 4.4 0 6.5-0.9 1.9-0.9 4.3-3.1 5.4-4.9 1.3-2.4 1.7-4.3 1.2-7-0.4-2.6-1.7-4.7-4.1-6.8-2.1-1.8-4.6-3-6.2-2.9-1.6 0-3.8 0.4-5 0.9z"/><path class="a" d="m548.9 911c0 0.8 0.9 2.7 2.1 4.3 1.1 1.5 2 3.3 2 4q0 1.2 0.9-0.3c0.6-1.1 1-1.2 1.5-0.2 0.3 0.6 2.3 1.2 4.4 1.2 2 0 5.2-0.6 7-1.5 1.7-0.8 3.2-2.2 3.2-3 0-1.2-0.5-1.1-2.2 0.5-1.3 1.1-3.7 2.3-5.3 2.6-1.7 0.4-4.3 0-6-0.7-1.6-0.8-4-3-5.2-4.9-1.3-1.9-2.4-2.8-2.4-2z"/></svg>