<svg version="1.2" xmlns="http://www.w3.org/2000/svg" viewBox="0 0 984 964" width="984" height="964"><style>.a{fill:#bec7cf}.b{fill:#2e4456}.c{fill:#e7eef6}</style><path class="a" d="m465.6 396.8c-0.4 0.9-0.5 4.6-0.5 8.2 0.1 3.6 0.3 7.3 0.5 8.2 0.2 1.1 1.3 1.8 2.6 1.8 1.3 0 3-0.6 3.8-1.3 0.8-0.7 4.4-2.6 7.9-4.2l6.3-3c16.8 9 18 9.3 19.3 8 1-1 1.2-2 0.6-3.3-0.5-0.9-0.9-2.5-0.8-3.6 0.2-1.3-2.2-3-9.3-6.7-5.2-2.7-10-4.9-10.5-4.9-0.6-0.1-4.9 2-9.8 4.5-7.7 4-8.8 4.3-9.3 2.7-0.4-0.9-0.5-3.2-0.2-5 0.3-1.7 0.4-3.2 0.2-3.2-0.1 0-0.5 0.8-0.8 1.7z"/><path class="a" d="m392.6 376.1c0.9 1.3 3.1 3.5 4.8 4.9 1.7 1.4 2.6 1.8 2.2 1-0.5-0.8-1.8-2.6-3-3.8-1.2-1.3-2.9-2.8-3.9-3.4-1.8-1-1.8-0.9-0.1 1.3z"/><path class="a" d="m456.3 375.4c-1.2 1.2-2.3 2.6-2.3 3.1 0 0.6 2.9 3.8 6.5 7.3l6.5 6.2c1.2-9.4 1.1-9.6-3.7-14.1l-4.8-4.6z"/><path class="a" d="m453.5 365.7c-0.5 0.3-0.8 1.5-0.7 2.5 0.1 1 1.1 2.3 2.2 2.8 1.8 0.9 1.9 0.8 1-1-0.8-1.6-0.6-2.3 1.2-3.5l2.3-1.5c-4 0-5.5 0.3-6 0.7z"/><path class="a" d="m512.5 364.9c-1.9 0.7-1.9 0.8 0.5 1.5 1.4 0.5 2.8 0.8 3.3 0.7 0.4-0.1 0.7 0.1 0.7 0.4 0 0.3-3.2 3.8-7.1 7.8l-7 7.2c0.9 9.9 1.5 12.3 2.1 12 0.6-0.3 1-1.4 1-2.5 0-1.2 2.3-4.1 5.5-7 3-2.7 5.5-5.6 5.5-6.2 0.1-0.7-0.9-2-2.1-2.8l-2.2-1.5c5.8-6.9 6.1-7.8 5-9-0.6-0.9-1.7-1.5-2.2-1.5-0.5 0.1-1.9 0.5-3 0.9z"/><path class="a" d="m381.5 365.3c2.2 2.6 4.6 4.9 5.3 5.2 0.9 0.4 0.9 0 0.3-1.3-0.5-0.9-2-2.6-3.3-3.7-1.2-1.2-3.2-2.7-4.3-3.5-1-0.8-0.1 0.6 2 3.3z"/><path class="a" d="m477.2 356.4c-1.5 3-3 5.3-3.4 5-0.5-0.2-0.8 0.1-0.8 0.6 0 0.6 0.4 1.2 1 1.5 0.6 0.3 2-1.4 3.1-3.7 1.2-2.4 2.5-5.3 2.9-6.5 0.4-1.3 0.6-2.3 0.4-2.3-0.2 0-1.7 2.4-3.2 5.4z"/><path class="b" d="m479.7 354.3c-3.2 6.5-5 9.2-6.3 9.3-1 0.1-4.9 0.6-8.6 1-3.9 0.5-7.5 1.6-8.5 2.6-1.7 1.6-1.5 2 5 8.5l6.8 6.8c-1.7 15.5-2 20.6-1.7 21.2 0.4 0.9 3.1 0 9.4-3.2 4.8-2.5 9.1-4.6 9.7-4.5 0.6 0 5.1 2.1 10 4.6 8.1 4.1 9 4.4 9.4 2.8 0.2-1.1-0.3-6-1-11.1l-1.4-9.2c11.2-11.7 14.5-15.3 14.5-15.6 0-0.3-0.3-0.4-0.7-0.3-0.5 0.1-2-0.4-3.5-1-1.6-0.7-3.9-1.2-5.3-1.2-1.4 0-4.6-0.6-7.1-1.3-4.4-1.2-4.8-1.5-9.2-10-2.6-4.8-5.2-8.7-5.9-8.7-0.7 0-3.2 4.2-5.6 9.2z"/><path class="a" d="m484.5 344c-0.3 0.6 0.1 1 0.8 1 0.6 0 2.6 2.5 4.2 5.5 1.6 3 3.1 5.2 3.3 5 0.1-0.3-1.2-3.2-2.8-6.5-1.6-3.3-3.4-6-4-6-0.5 0-1.1 0.4-1.5 1z"/><path class="a" d="m364 347.3c5.2 5.3 9.6 9.4 9.8 9.2 0.1-0.3-3.3-4-7.6-8.3-4.3-4.2-8.7-8.3-9.8-9.1-1-0.8 2.4 2.9 7.6 8.2z"/><path class="a" d="m335.7 319.3c0.3 0.6 4.6 5 9.5 9.7 4.8 4.7 8.8 8.2 8.8 7.7 0-0.4-4.1-4.8-9-9.7-4.9-5-9.2-9-9.5-9-0.2 0-0.1 0.6 0.2 1.2z"/><path class="a" d="m321.9 305.2c0.3 0.8 2.6 3.2 5.1 5.4 4 3.6 4.2 3.6 2.4 0.9-1.2-1.6-3.5-4.1-5.1-5.4-1.8-1.5-2.8-1.8-2.4-0.9z"/><path class="a" d="m290.7 307c-0.3 2.8 0 5.7 0.8 7.5 0.7 1.6 22.4 23.9 48.2 49.5 25.9 25.6 47.8 47.2 48.9 48 1 0.8 3.3 1.5 5.1 1.5 1.7 0 4.4-0.9 6-2.1 1.5-1.2 3.5-3.3 4.3-4.7 1.3-2.3 1.3-2.8 0-5l-1.5-2.5c-6.1 3.4-7.9 3.7-10.5 3.3-2.9-0.6-11-8.2-51.3-48.3-26.3-26.3-48.2-48.6-48.6-49.7-0.6-1.6-0.9-1-1.4 2.5z"/><path class="a" d="m310 293.6c0.8 1.2 3.1 3.4 5 5 3.4 2.8 3.4 2.8 1.9 0.4-0.9-1.4-3.2-3.6-5-5-2.9-2.2-3.1-2.3-1.9-0.4z"/><path class="b" d="m294.8 291.9c-2.9 2.6-3.3 3.5-3.3 8v5.1c84.1 84.1 96.9 96.3 99.5 97.1 2.9 1 4.2 0.8 7.4-0.7 2.1-1.1 4.3-2.9 4.7-4.1 0.5-1.3 0.9-4 0.9-6 0-3.7-1.9-5.6-47.8-51.6-26.2-26.3-48.9-48.4-50.5-49.2-1.5-0.8-3.8-1.5-5.2-1.5-1.3 0-3.9 1.3-5.7 2.9z"/><path class="a" d="m346 248c0 0.6 0.6 1 1.3 1 0.6 0-0.3 0.9-2 2-1.8 1.1-3.3 2.7-3.3 3.5 0 0.8 1 2.1 2.3 2.9 1.2 0.8 3.9 1.9 6 2.5 2 0.6 4.4 1.8 5.2 2.6 0.9 0.9 1.5 3.4 1.5 6.5 0 3.1 0.6 5.6 1.5 6.5 0.8 0.8 2.1 1.3 2.8 1 0.6-0.3 3-2.6 5.2-5.1 4-4.7 4-4.7 9-4.1 2.8 0.3 5.7 0.9 6.5 1.2 0.8 0.4 2.3-0.1 3.3-0.9 1.5-1.5 1.6-1.9 0.2-4.6-0.8-1.6-1.5-3.6-1.5-4.3 0-0.6-0.6-1.3-1.3-1.3-0.6-0.1-3.5-0.6-6.4-1l-5.2-0.9c-8.5 9.4-11.1 11.5-11.8 11.1-0.7-0.3-1.7-3.7-2.3-7.6-0.9-6.4-1.3-7.1-4.2-8.8-1.8-1-4.1-2.1-5.1-2.5-1-0.3-1.8-0.2-1.7 0.3z"/><path class="a" d="m354 234.5c0 0.6-1.8 1.9-4.1 2.9-2.2 1.1-4.6 2.6-5.3 3.5-0.6 0.9 1 0.3 3.9-1.3 2.7-1.6 5.4-3.2 6-3.7 0.6-0.5 0.6-1.2 0.2-1.6-0.4-0.5-0.7-0.4-0.7 0.2z"/><path class="a" d="m382.3 227.6c1.5 0.2 2.7 0.8 2.7 1.4 0 0.6-1.2 3.8-2.6 7.3l-2.7 6.2c5.7 11.6 7.3 14.4 7.3 13.8 0-0.7-0.8-3-1.9-5-1.4-2.9-1.6-4.4-0.9-6.3 0.5-1.4 0.7-4.2 0.4-6.2-0.4-2.4-0.1-4.9 0.9-6.8 0.8-1.7 1.5-3.4 1.5-4 0-0.6-1.7-0.9-3.8-0.9-2.8 0.2-3 0.3-1 0.5z"/><path class="a" d="m535.3 229.8c2 2.3 3.7 4.6 3.7 5.2 0 0.5-2.4 1.4-5.2 2-2.9 0.5-6.2 1.1-7.3 1.3-1.3 0.1-3.2 2.5-5.5 6.7-1.9 3.6-4.1 6.5-4.9 6.5-0.7 0-2.2-2.3-3.4-5-1.2-2.8-2.7-5.8-3.2-6.8-0.6-1-3.3-2.2-6.6-3-4.9-1-5.5-1-5.1 0.3 0.2 0.8-0.5 2.7-1.7 4.2-1.1 1.6-2.1 3.2-2.1 3.8 0 0.5 1 1.2 2.3 1.4 1.2 0.3 4.5 1 7.2 1.5 4.9 1.1 5.1 1.2 8 7.6 2.4 5.2 3.4 6.5 5 6.3 1.3-0.2 2.9-2.1 4.5-5.6 1.4-2.8 3.2-5.6 4-6.2 0.8-0.5 3.6-1 6.3-1 2.6 0 5.6-0.5 6.7-1 1.1-0.6 2-1.3 2-1.8 0-0.4-0.9-1.8-2-3.2-1.1-1.4-2-3.1-2-3.8 0-0.6 1.1-1.4 2.5-1.7 1.4-0.3 2.5-1 2.5-1.5 0-0.6-1-2.4-2.2-4.1-1.3-1.6-3.4-3.7-4.8-4.6-1.9-1.2-1.6-0.6 1.3 2.5z"/><path class="b" d="m357.7 221.8c-0.2 0.4-1.1 3.8-1.8 7.5-1.4 6.8-1.4 6.9-6.9 10-3 1.7-5.8 3.5-6.2 4.1-0.4 0.6-0.8 1.3-0.8 1.6 0 0.3 1.7 1.1 3.7 1.9 2.1 0.8 5.3 2.3 7.1 3.3 2.9 1.6 3.3 2.4 4.2 8.8 0.6 3.9 1.6 7.3 2.3 7.6 0.7 0.4 3.3-1.7 6.5-5.2l5.3-5.9c7.3 1.2 10.6 1.7 12.2 2 1.9 0.4 2.7 0.1 2.7-1 0-0.8-1.5-4.2-3.2-7.5l-3.3-6.1c4.3-10 5.5-13.3 5.5-13.9 0-0.6-1.1-1-2.5-1-1.4 0-4.4 0.5-6.7 1.1-3.5 0.9-4.9 0.8-7.3-0.4-1.6-0.8-4.4-2.9-6-4.6-1.6-1.7-3.3-3.1-3.7-3.1-0.4 0-0.9 0.3-1.1 0.7z"/><path class="a" d="m357 220.5c0 0.8 0.4 1.3 1 1 0.6-0.3 3 1.3 5.5 3.5 2.5 2.2 5.7 4.3 7.3 4.6 1.5 0.3 2.9 0.3 3.1 0 0.2-0.3-0.5-0.6-1.7-0.6-1.3 0-4.5-2.2-7.5-5-2.8-2.7-5.8-5-6.5-5-0.6 0-1.2 0.7-1.2 1.5z"/><path class="a" d="m531.2 220c0 5 0.1 5.2 0.9 2.3 0.5-2 0.5-4.2 0-5.5-0.8-1.8-1-1.1-0.9 3.2z"/><path class="a" d="m503.2 216.3c-0.2 5.4-0.5 6-5.2 10.9-2.7 2.9-5 5.9-5 6.5 0 0.7 0.5 1.3 1 1.3 0.6 0 0.8-0.5 0.5-1-0.3-0.6 1.8-3.1 4.5-5.8l5.1-4.7-0.7-13z"/><path class="b" d="m503.5 207.6c-0.3 0.2-0.3 3.9 0 8.2l0.7 7.7c-9.9 8.7-10.5 9.7-9.4 11 0.6 0.8 1.5 1.4 2 1.3 0.4-0.1 3 0.2 5.7 0.7 2.8 0.5 5.6 1.7 6.5 2.7 0.8 1.1 2.5 4.3 3.7 7.1 1.2 2.9 2.7 5.2 3.4 5.2 0.8 0 3-2.9 4.9-6.5 2.3-4.2 4.2-6.6 5.5-6.7 1.1-0.2 4.4-0.8 7.3-1.3 2.8-0.6 5.2-1.4 5.2-2 0-0.6-1.9-3.1-4.1-5.7-4-4.6-4.1-5-3.7-10.3 0.3-3 0.8-6.2 1.2-7 0.3-0.8 0.2-2.2-0.4-3-0.8-1.3-1.8-1-7.4 1.8l-6.6 3.2c-8.1-4.4-11.3-5.9-12.2-6.3-1-0.3-2-0.4-2.3-0.1z"/><path class="b" d="m577.3 205.3c-1.2 0.7-2.9 2.4-3.7 3.7-1.4 2.2-1.6 11-1.6 69.7 0 51.8 0.3 67.9 1.3 69.9 0.6 1.5 2.4 3.3 4 4 1.5 0.8 3.6 1.4 4.7 1.4 1.1 0 3.4-0.7 5-1.5 1.7-0.8 3.7-3 4.5-5 1.3-3 1.5-13 1.5-68.8 0-60.1-0.1-65.5-1.8-68.7-0.9-1.9-2.8-4-4.2-4.7-1.4-0.7-3.6-1.3-5-1.3-1.4 0-3.5 0.6-4.7 1.3z"/><path class="a" d="m575.8 204.8c-1.5 0.9-3.2 2.7-3.8 3.9-0.6 1.5-1 27.3-1 75 0.1 70.5 0.1 72.9 2 76 1.1 1.8 3.2 3.8 4.8 4.4 1.5 0.6 4.3 0.8 6.2 0.5 1.9-0.3 4.5-1.6 5.8-2.8 2-1.9 2.4-3.5 2.7-9.8 0.4-7.3 0.4-7.4-1-4.3-0.8 1.8-2.8 4-4.5 4.8-1.6 0.8-3.9 1.5-5 1.5-1.1 0-3.2-0.6-4.7-1.4-1.6-0.7-3.4-2.6-4.1-4.2-1-2.3-1.2-17.7-1-71.1l0.3-68.2c3.7-3.3 6.4-4.5 8.4-4.7 2-0.3 4.7 0.1 6.1 0.8 1.4 0.7 3.3 2.9 4.2 4.8 1 1.9 1.8 2.9 1.8 2.2 0-0.6-0.6-2.4-1.2-3.8-0.7-1.5-2.5-3.3-4-4-1.6-0.8-4.3-1.4-6-1.4-1.8 0-4.5 0.8-6 1.8z"/><path class="a" d="m413 151.3c0.1 0.6-0.9 2.1-2 3.2-1.5 1.4-2 3.1-1.9 6 0.1 2.2 0.3 3.1 0.6 2 0.2-1.1 0.6-3.1 0.9-4.5 0.4-1.4 2-3.7 3.7-5.3 2.8-2.5 2.9-2.7 0.9-2.7-1.2 0-2.2 0.6-2.2 1.2z"/><path class="b" d="m414.2 152.8c-1.6 1.5-3.3 3.8-3.7 5.2-0.4 1.4-0.3 5 0.3 8 0.5 3 3 13.4 5.5 23 2.5 9.6 4.8 18.6 5.1 20 0.2 1.4 3.5 14.4 7.1 29 3.7 14.6 6.9 27.2 7 28 0.2 0.8 1.8 6.9 3.5 13.5 1.8 6.6 3.9 12.8 4.8 13.8 1 1 3.2 2.2 5 2.7 2.4 0.8 4.1 0.6 6.7-0.5 1.9-0.8 4.2-2.5 5-3.8 0.8-1.2 1.6-3.6 1.6-5.2 0-1.6-0.9-6.4-2-10.5-1.2-4.1-3.6-13.6-5.5-21-1.8-7.4-4-16.4-4.9-20-0.8-3.6-3.5-14.4-6-24-2.4-9.6-5.6-22.2-7-28-1.5-5.8-3.7-14.3-4.9-18.9-1.6-5.8-3.2-9.4-5-11.3-2-2-3.8-2.8-6.2-2.8-2.3 0-4.3 0.9-6.4 2.7z"/><path class="a" d="m426.7 153.1c1.6 1.7 3 3.8 3.1 4.7 0.1 0.9 0.4 1.5 0.7 1.2 0.4-0.3 0.4-1.4 0.1-2.5-0.3-1.1-1.3-3-2.3-4.2-1-1.2-2.4-2.2-3.2-2.3-0.8 0-0.2 1.2 1.6 3.1z"/><path class="a" d="m411.3 174.5c0.3 2.2 1 5.8 1.6 8 0.5 2.2 1.5 5.8 2 8 0.6 2.2 1.5 6.3 2.2 9 0.7 2.8 1.2 6.3 1.3 8 0 1.7 0.4 3.2 0.9 3.5 0.4 0.3 1 1.8 1.1 3.5 0.2 1.7 0.7 3.7 1.1 4.5 0.4 0.8 0.5 2.2 0.2 3-0.2 0.8 0.3 2.3 1.2 3.4 0.9 1 1.6 3.3 1.6 5.2 0 1.9 0.2 3.4 0.5 3.4 0.3 0 1.2 2.7 2 5.9 0.8 3.3 1.2 6.4 0.7 6.8-0.4 0.4 0.1 1.6 1 2.7 1 1 2.2 4.2 2.7 7 0.5 2.8 0.9 6.3 1 7.8 0 1.6 0.3 2.8 0.6 2.8 0.3 0 1.3 2.8 2.3 6.2 1 3.5 2.2 7.9 2.7 9.8 0.5 1.9 1.2 4.9 1.6 6.5 0.4 1.6 0.6 3.9 0.5 5-0.1 1.1 0.5 3.7 1.3 5.7 1.2 2.9 2.7 4.3 5.8 5.6 3.5 1.5 4.9 1.6 7.6 0.8 2.4-0.8 4.1-2.4 5.9-5.6 2.1-3.6 2.3-4.8 1.4-6.3-0.8-1.3-0.8-2.3 0.4-4.2 0.8-1.4 1.5-2.9 1.5-3.5 0-0.6-0.5-1-1-1-0.6 0-1 0.8-1 1.7 0.1 1-0.8 3-2 4.5-1.1 1.6-3.6 3.2-5.5 3.8-2.6 0.7-4.3 0.6-6.8-0.3-1.7-0.8-3.7-2-4.4-2.8-0.6-0.8-2.5-6.8-4.3-13.4-1.7-6.6-3.3-12.7-3.5-13.5-0.1-0.8-3.3-13.4-7-28-3.6-14.6-6.9-27.6-7.1-29-0.3-1.4-2.6-10.4-5-20-2.5-9.6-4.8-17.7-5.1-18-0.3-0.3-0.3 1.3 0 3.5z"/><path class="a" d="m615.5 367.1c-2.8 1-5.9 2.8-7 4-1.9 1.9-1.7 1.9 2-0.2 2.2-1.3 6.5-3.1 9.5-4.1 3.1-0.9 4.4-1.7 3-1.7-1.4 0.1-4.8 0.9-7.5 2z"/><path class="b" d="m620 366.9c-3 1-6.9 2.5-8.5 3.3-1.6 0.9-4.6 2.9-6.6 4.5-1.9 1.5-11.3 11.1-20.9 21.3-9.5 10.2-28.8 30-42.9 44-14.1 14-32.8 32.1-41.6 40.1-8.8 8-20.3 18.1-25.5 22.5-5.2 4.4-10.7 8.9-12.1 10-1.5 1-6.2 4.6-10.5 7.8-4.4 3.3-10.8 7.7-14.4 9.7-3.6 2-9.3 4.4-12.8 5.3-4.7 1.2-7.1 1.4-10 0.6-2-0.6-4.6-1.8-5.8-2.8-1.2-0.9-4.1-4.6-6.6-8.2-2.4-3.6-5.7-8.7-7.3-11.5-1.5-2.7-5.3-8.8-8.4-13.5-3.1-4.7-8.7-12.1-12.5-16.5-3.8-4.4-10.1-10.9-14-14.3-4-3.6-10.3-8-14.5-10-6.5-3.2-8.6-3.8-16-4.1-7-0.3-9.7 0.1-14.6 1.8-3.3 1.2-7.8 3.3-10 4.6-2.2 1.2-6.5 4.9-9.7 8.1-3.3 3.5-6.7 8.4-8.3 11.9-1.5 3.3-3.1 8.8-3.6 12.3-0.5 3.5-0.5 9.1-0.1 13 0.6 4.3 2.2 9.4 4.5 14.2 2 4.1 6.2 11.5 9.5 16.5 3.2 5 7.4 11.7 9.4 15 2 3.3 4.9 8.7 6.6 12 1.6 3.3 4.4 10 6.1 15 1.8 5 3.9 12.1 4.6 16 1 4.7 1.5 13.3 1.5 26 0 10.5 0.4 24 1 30 0.6 6 1.5 13.5 2.1 16.5 0.5 3 1.5 7.8 2 10.5 0.6 2.8 3.3 12 6 20.5 2.9 9.4 7.1 20.1 10.7 27 3.2 6.3 8.6 15.5 11.9 20.5 3.4 5 11.3 14.2 17.5 20.6 6.2 6.4 16 15.1 21.8 19.3 6.8 5 15.9 10.4 25.5 15.1 8.2 4 17.9 8.2 21.5 9.3 3.6 1.1 10.8 3.1 16 4.4 5.2 1.3 9.7 2.5 10 2.8 0.3 0.3 3.2 0.7 6.5 1 3.3 0.3 15.7 0.5 27.5 0.5 12.9 0 23.7-0.5 27-1.3 3-0.6 10-2.1 15.5-3.3 5.5-1.1 12.5-2.8 15.5-3.6 3-0.8 7.7-2.4 10.5-3.5 2.7-1.1 5.9-2.4 7-2.8 1.1-0.5 6.3-2.9 11.5-5.3 5.2-2.4 13.1-6.6 17.5-9.2 4.4-2.7 11.4-7.4 15.5-10.4 4.2-3.1 10.6-8.3 14.3-11.6 3.7-3.3 16.5-16.8 28.5-29.9 11.9-13.2 26.7-29.4 32.8-36 8.1-8.9 11.9-14 14.4-19.1 1.8-4 3.7-9.8 4.2-13.5 0.5-3.8 0.5-9.2 0-13-0.5-3.6-1.9-8.7-3.1-11.5-1.2-2.7-3.7-7.2-5.6-10-1.8-2.7-5-6.4-7.1-8.1-2.2-1.7-6.4-4.5-9.4-6.1-3-1.7-6.7-3.3-8.3-3.7-2.1-0.5-2.7-1.2-2.7-3.1 0-1.4 0.4-3.5 0.9-4.7 0.6-1.5 0.4-5-0.4-9.8-0.7-4.1-2.1-9.3-3-11.5-1-2.2-3.6-6.4-5.9-9.3-2.2-2.9-6.6-7-9.7-9-3-2-8.4-4.6-11.8-5.7-6.2-2-6.3-2-5.6-5 0.4-1.6 0.9-5.9 1.2-9.5 0.3-4.4-0.1-8.5-1.2-12.5-0.9-3.3-3.2-8.7-5-12-1.8-3.3-5.8-8.4-8.9-11.2-3.1-2.9-8.4-6.6-11.8-8.3-3.5-1.6-6.9-3-7.5-3-0.7 0-1.5-0.4-1.8-1-0.3-0.5 13.3-14.8 30.1-31.7q30.6-30.8 32.9-35.3c1.2-2.5 3-7 4-10 1.3-4.2 1.7-7.9 1.4-15.5-0.4-9.3-0.7-10.6-4.4-18-2.7-5.4-5.7-9.7-9.5-13.3-3-2.9-7.3-6.2-9.5-7.4-2.2-1.1-6.5-2.9-9.5-4-3.8-1.2-8.2-1.8-14-1.8-5.2 0.1-10.6 0.8-14 1.9z"/><path class="a" d="m477.5 746.2c-3.9 4-5.2 5.6-3 3.5 2.2-2 4.3-3.5 4.8-3.2 0.4 0.3 0.5 0.2 0.2-0.3-0.3-0.4 0.9-2.2 2.7-4 1.7-1.7 3-3.2 2.7-3.2-0.2 0-3.6 3.3-7.4 7.2z"/><path class="a" d="m634.5 713.9q-0.9 1.1 0.4 0.9c0.7-0.2 1.9 0.6 2.7 1.7 1.3 1.9 0.9 2.5-6.3 9.5-4.3 4.2-10.1 9.4-12.8 11.7-2.7 2.2-8.8 6.5-13.5 9.5-4.7 3-11 6.8-14 8.5-3 1.6-9.3 4.6-14 6.6-4.7 2-11.6 4.7-15.5 6.1-3.9 1.3-9.7 3.1-13 3.9-3.3 0.9-12.5 2.5-20.5 3.7-12 1.8-17.2 2.1-30 1.7-9.8-0.4-19-1.3-25-2.6-5.2-1.2-11.3-2.6-13.5-3.2-2.2-0.6-5.1-1.3-6.3-1.7-1.7-0.5-2.3-1.3-2-2.8 0.3-2.1 0.2-2.1-3.2-0.7-1.9 0.9-6.4 2.4-10 3.4-3.6 1-9.8 2.2-13.8 2.6-4 0.5-7.2 1-7.2 1.3 0 0.3 0.9 1.1 2 1.8 1.1 0.6 6.8 3.6 12.8 6.6 5.9 2.9 14.3 6.5 18.7 7.9 4.4 1.4 10.5 3.2 13.5 4 3 0.8 8.4 2.1 12 2.8 4.3 0.9 13.5 1.4 27 1.4 13.2 0 23.2-0.5 28-1.4 4.1-0.7 12.5-2.6 18.5-4.2 6-1.5 13.7-3.8 17-5 3.3-1.2 11-4.5 17-7.4 6-2.8 14.4-7.3 18.5-10 4.1-2.7 11.1-7.7 15.5-11.1 4.4-3.4 11.4-9.7 15.6-14.1 4.2-4.3 10.4-10.7 13.7-14.3 3.4-3.6 6.2-7.1 6.2-7.7 0-0.7-0.6-1.3-1.2-1.3-0.7 0-3.8-1.2-6.8-2.6-3-1.4-6.4-3.4-7.6-4.5-1.4-1.5-2.3-1.7-2.9-1z"/><path class="a" d="m684.9 667.5c-9.3 10.2-12.1 12.7-15.4 13.6-2.3 0.6-5.9 0.8-8.5 0.4-2.5-0.4-6.3-1.8-8.5-3-2.2-1.3-5.5-4-7.4-6.2-2.1-2.5-3.1-4.4-2.7-5.5 0.3-1 0.3-1.6-0.1-1.4-0.5 0.2-1.4 3.2-2.2 6.7-1.1 5.1-1.2 7.5-0.3 11.4 0.7 2.8 2.5 6.8 4.1 9 1.6 2.2 5.1 5.2 7.7 6.7 2.7 1.4 6.9 2.9 9.4 3.3 2.5 0.4 6.3 0.2 8.5-0.4 3.2-0.8 5.8-3 13.1-10.8 5-5.4 10.5-12 12.3-14.8 1.8-3 3.3-7 3.7-10 0.3-2.7 0.4-6.5 0.2-8.2-0.3-1.8-0.9-3.3-1.5-3.3-0.6 0-6.2 5.6-12.4 12.5z"/><path class="c" d="m668.1 639.5c-1.9 1.6-2.8 3-2.4 3.8 0.5 0.7 0.4 0.9-0.2 0.5-0.6-0.4-6 4.3-12.2 10.5-6.2 6.2-11.3 12-11.3 12.9 0 1 1.5 3.4 3.2 5.4 1.8 2 5.1 4.6 7.3 5.9 2.2 1.2 6 2.6 8.5 3 2.6 0.4 6.2 0.2 8.5-0.4 3.3-0.9 6.1-3.5 15.5-13.7 6.3-6.9 11.6-13 11.7-13.5 0.2-0.5-0.5-2.4-1.6-4.2-1-1.7-3.6-4.6-5.7-6.4-2.2-1.7-5-3.3-6.4-3.5-1.4-0.2-3.1-0.9-3.8-1.6-0.6-0.6-2.7-1.2-4.6-1.2-2.2 0-4.6 0.9-6.5 2.5z"/><path class="a" d="m656.5 650.2c-8.9 9.1-9.7 10.1-2.5 3 5.8-5.6 10.9-9.9 11.4-9.5 0.5 0.5 0.6 0.3 0.3-0.5-0.4-0.7 0.6-2.2 2.5-3.7 1.7-1.4 2.7-2.5 2.2-2.5-0.5 0-6.8 6-13.9 13.2z"/><path class="a" d="m346.5 641.5c0.3 5 1 12.6 1.5 17 0.6 4.4 1.9 12.2 3 17.3 1.1 5 3.6 14 5.5 19.9 2 6 5.9 15.5 8.7 21.3 4.2 8.4 6.5 11.7 11.8 16.8 4.2 4.1 9.5 7.8 15 10.7 4.7 2.4 11.4 5.1 15 6 4.6 1.2 9 1.6 15 1.3 6.3-0.3 10.3-1.2 15.5-3.3 3.9-1.5 9.3-4.2 12-6 2.8-1.7 7.9-5.8 11.4-9.1 3.5-3.2 9.6-9.9 13.5-14.7 5.3-6.6 7.9-8.9 10.1-9.4 2.1-0.4 4.2 0.1 7 1.6 2.2 1.3 3.4 1.7 2.7 0.9-0.7-0.7-1.2-1.9-1.2-2.6 0-0.6 0.8-2.4 1.8-4 1.1-1.5 2.2-3.8 2.5-5.2 0.3-1.4-0.1-4-0.9-5.8-0.8-1.8-2.8-3.9-4.7-4.8-2.1-1.1-4.4-1.4-7-1-2.8 0.4-4.5 1.6-7 4.7-1.7 2.3-4.2 5.1-5.4 6.3-1.2 1.1-2.2 2.4-2.3 2.8 0 0.5-3 3.8-6.8 7.5-3.7 3.8-9.4 8.6-12.7 10.7-3.3 2.2-8.3 5-11 6.3-2.8 1.2-7.9 2.8-11.5 3.5-5.1 0.9-8.4 0.9-15.5-0.1-5.9-0.8-11.4-2.3-16-4.5-3.9-1.7-10.4-5.8-14.5-9-4.1-3.2-8.5-7.3-9.8-9-1.3-1.7-4.2-6.9-6.6-11.6-2.3-4.7-5.1-11-6.1-14-1-3-2.1-6-2.5-6.5-0.3-0.5-1.2-3-1.9-5.5-0.7-2.5-1.7-5.6-2.2-7-0.5-1.4-1.6-6.1-2.4-10.5-0.9-4.4-1.8-10.3-2.1-13-0.3-2.8-0.9-5.5-1.5-6-0.7-0.7-0.8 1.9-0.4 8z"/><path class="a" d="m571.5 622.7c-0.5 0.3-0.8 2.4-0.7 4.5 0.1 2.1 0.7 4 1.2 4.3 0.6 0.3 0.9-1.4 0.8-4.5-0.1-2.8-0.2-5-0.3-5-0.1 0-0.5 0.3-1 0.7z"/><path class="a" d="m393.8 613.8c0.1 0.4 0.5 1.1 0.9 1.5 0.4 0.5 0.8 1.3 0.8 1.8 0 0.5 0.3 0.9 0.7 0.9 0.5 0 1.5 0.7 2.3 1.5 1 1 3 1.4 5.6 1.3 2.3-0.2 4.3-0.6 4.5-1 0.2-0.5-1.6-0.8-4.1-0.8-3.6 0-5.1-0.6-7.7-2.9-1.7-1.6-3.1-2.6-3-2.3z"/><path class="a" d="m420.1 600.2c0 0.2-0.7 2-1.6 4-0.8 2.1-1.1 3.6-0.5 3.3 0.5-0.3 1.7-1.9 2.5-3.5 0.8-1.7 1.1-3.3 0.6-3.6-0.5-0.3-0.9-0.4-1-0.2z"/><path class="a" d="m345.1 605.4c-0.1 3.8 0.3 6.6 0.9 6.6 0.5 0 1-2.7 1.1-5.9 0.1-3.3-0.3-6.3-0.9-6.6-0.6-0.4-1 1.9-1.1 5.9z"/><path class="a" d="m644.5 611.7c-8.3 8.6-16.4 16.4-18 17.4-1.8 1.1-4.8 1.9-7.5 1.9-2.5 0-6.5-0.6-9-1.5-2.5-0.8-6.4-3.3-8.8-5.5-3-2.8-4.1-4.6-3.7-6 0.3-1.1 0-2.2-0.5-2.5-0.5-0.3-1.5 1-2 2.7-0.6 1.8-1 6.1-1 9.5 0 3.8 0.6 7.6 1.6 9.5 1 1.8 2.9 4.8 4.3 6.6 1.4 1.9 4.9 4.5 7.6 5.9 4.1 2 6.2 2.4 11.7 2.1l6.8-0.3c25.5-25.6 33.8-34.8 34.9-37 1.2-2.3 2.1-6 2.1-8.8 0-2.6-0.5-5.8-1-7.2-0.5-1.4-1.3-2.4-1.7-2.4-0.5 0.1-7.5 7.1-15.8 15.6z"/><path class="c" d="m641.5 584c1.5 0.8 1.2 0.9-1.7 0.5-2.4-0.4-4.9 0-6.8 1-1.6 0.8-5 3.5-7.5 6-2.5 2.5-4.8 4.4-5.1 4.3-0.4-0.2-3.1 1.6-6 4-3.5 2.7-5.1 4.6-4.7 5.5q0.8 1.2-0.5 0.5c-0.7-0.5-1.4-0.2-1.7 0.7-0.3 0.8-0.8 1.3-1.3 1-0.4-0.2-2.7 1.1-5.1 3.1-4 3.1-4.4 3.8-4 6.9 0.3 2.4 1.6 4.4 4.4 6.9 2.2 2 6 4.3 8.5 5.1 2.5 0.8 6.4 1.5 8.7 1.5 2.4 0 5.5-0.6 7-1.4 1.6-0.8 9.9-8.7 18.6-17.5 8.6-8.9 15.7-16.6 15.7-17.1 0-0.5-1.6-2.6-3.5-4.5-1.9-1.9-4.7-4.1-6.3-4.9-1.5-0.7-4.5-1.6-6.7-1.9-3-0.5-3.5-0.4-2 0.3z"/><path class="a" d="m540.5 542.5c-1.1 0.9-1.5 1.5-1 1.5 0.5 0.1 0.3 0.6-0.6 1.3-0.8 0.7-1.9 2.1-2.4 3.2-0.4 1.1-1 2.9-1.2 4-0.2 1.1-0.8 2.2-1.2 2.5-0.5 0.3-0.5 1.4-0.1 2.5 0.5 1.6 0.9 1.1 1.8-2.5 0.6-2.5 2.4-6.6 4.1-9.3 1.6-2.6 2.8-4.7 2.7-4.7 0 0-1 0.7-2.1 1.5z"/><path class="a" d="m624 538.8c0 2-1.5 4.3-5.7 8.6-3.2 3.3-7.6 7.3-9.9 9-2.3 1.7-7.4 5.8-11.3 9.1-4 3.3-8.7 6.8-10.4 7.7-1.8 1-4.7 1.8-6.4 1.8-1.8 0-5.9-0.9-9-2-3.5-1.2-7.3-3.6-9.6-5.8-2.1-2-4-4.6-4.3-5.7l-0.6-2c-2.3 3.2-2.8 6.5-2.8 10.3 0 3.4 0.6 7.7 1.3 9.5 0.7 1.7 3.1 5.2 5.3 7.6 2.1 2.4 5.6 5.2 7.7 6.2 2 1.1 5.4 2.2 7.5 2.5 2 0.4 5.4 0.4 7.5 0 2.7-0.4 7.1-3.3 16.5-10.8 7-5.7 15-12.5 17.7-15.3 2.8-2.8 6.1-7.3 7.4-10.1 1.3-2.7 2.6-6.7 2.9-8.9 0.3-2.2 0-6.4-0.6-9.2-0.6-2.9-1.5-5.3-2.1-5.3-0.6 0-1.1 1.2-1.1 2.8z"/><path class="a" d="m571.5 541.2c-7.2 7.3-9.9 10.2-6 6.5 3.9-3.7 7.3-6.5 7.8-6.2 0.4 0.3 0.5 0.2 0.2-0.3-0.3-0.4 2.3-3.5 5.7-7 3.4-3.4 6-6.2 5.8-6.2-0.3 0-6.4 6-13.5 13.2z"/><path class="c" d="m597 522.7c-0.8 0.3-1.8 1.1-2.2 1.7q-0.8 1.1-0.6-0.1c0.1-1-0.5-1-2.8-0.2-1.6 0.5-6.4 4.5-10.6 8.7-4.2 4.2-7.4 8.2-7 8.7 0.4 0.5 0.2 0.7-0.3 0.3-0.6-0.4-4 2.3-7.6 6-3.6 3.7-7.3 7.8-8.2 9.2-1.4 2.2-1.4 2.8-0.2 5 0.7 1.4 2.8 4 4.7 5.7 1.8 1.8 5.9 4.2 9 5.3 3.2 1.1 7.3 2 9 2 1.8 0 4.7-0.8 6.5-1.8 1.7-0.9 6.4-4.4 10.4-7.7 3.9-3.3 9-7.4 11.3-9.1 2.3-1.7 6.7-5.7 9.9-9 4.7-4.9 5.7-6.5 5.7-9.4 0-2.6-0.8-4.3-3.2-6.8-1.8-1.8-3.7-2.9-4.1-2.5-0.4 0.5-0.7 0-0.7-1 0-1.1-1.2-2.1-3.3-2.7-1.7-0.5-3.4-0.8-3.7-0.5-0.3 0.2-1.4-0.2-2.5-1-1.1-0.9-3.4-1.5-5-1.4-1.6 0-3.7 0.3-4.5 0.6z"/><path class="a" d="m555.3 527c-5.1 5-9.3 9.3-9.3 9.8-0.1 0.4 2.5-1.8 5.7-4.8 3.1-3 7.5-7.4 9.6-9.8 2.2-2.3 3.7-4.2 3.6-4.2-0.2 0-4.6 4.1-9.6 9z"/><path class="a" d="m303.3 495.8c-0.3 0.9-0.3 4.3 0 7.4 0.4 3.2 1.4 7.3 2.4 9 0.9 1.8 4.6 7.8 8.3 13.3 3.7 5.5 9.6 15.2 13.1 21.5 3.5 6.3 7.7 15.1 9.4 19.5 1.7 4.4 4 11.1 5 15 1 3.9 2 6.4 2.2 5.7 0.2-0.6 0.7-1 1.3-0.7 0.5 0.3 1 0 1-0.5 0-0.5-0.7-5.4-1.5-10.8-0.8-5.3-2.3-12.6-3.4-16.2-1.2-3.6-2.1-7.1-2.1-7.8 0-0.6-1.1-3.8-2.5-7-1.4-3.1-3.5-7.5-4.7-9.7-1.1-2.2-3.4-6.5-5-9.5-1.6-3-5-8.8-7.6-12.9-2.6-4.1-5.5-7.9-6.4-8.5-1.3-0.9-2.1-0.7-3.8 0.9-1.3 1.3-2.4 1.7-3 1-0.5-0.6-1-3.4-1.1-6.3-0.1-2.8-0.4-5.2-0.6-5.2-0.2 0-0.6 0.8-1 1.7z"/><path class="a" d="m590.5 492.3l-10 10.2c15.9-15.5 20.5-20.1 20.5-20.3 0-0.1-0.1-0.2-0.3-0.2-0.1 0-4.7 4.6-10.2 10.2z"/><path class="a" d="m531.5 478.3l-7 7.2c11.3-10.9 14.5-14.1 14.5-14.3 0-0.1-0.1-0.2-0.3-0.2-0.1 0-3.4 3.3-7.2 7.2z"/><path class="c" d="m621.7 388.6c-2.3 1.2-5.9 4.1-8.1 6.5-2.1 2.4-8.2 9-13.5 14.6-5.3 5.7-24.2 24.8-42.1 42.5-17.8 17.8-35.6 35.3-39.5 39.1-3.8 3.7-7.3 6.9-7.6 7-0.4 0.1-3.5 2.7-7 5.7-3.5 3-8.8 7.8-11.9 10.5-3 2.8-8 7.1-11 9.6-3 2.4-7.3 5.8-9.5 7.4-2.2 1.6-4.7 3.6-5.5 4.3-0.8 0.8-2.7 2.2-4.3 3.1-1.5 0.9-2.7 2.2-2.7 2.8 0 0.7-0.7 1.1-1.5 0.8-0.9-0.3-1.5 0.1-1.5 1 0 0.9-0.5 1.2-1.1 0.7-0.6-0.4-1.5 0-2 0.8-0.4 0.8-1.2 1.5-1.7 1.5-0.5 0-4.5 1.8-8.8 4-4.4 2.2-8 4.3-8.2 4.7-0.1 0.5-0.7 0.6-1.2 0.3-0.6-0.3-1 0-1 0.5 0 0.5-0.5 0.7-1.1 0.2-0.6-0.4-1.5 0-2 0.8-0.7 1.2-1 1.2-1.7 0.2-0.5-1.1-1.1-1-2.5 0.5-1.1 1-1.6 2.4-1.2 3.3 0.4 0.8 0.9 5.8 1.2 11 0.4 6.6 0 11.9-1.1 17.2-0.9 4.3-1.4 8.3-1.1 8.8 0.3 0.5 0 1-0.5 1-0.6 0-0.8 0.7-0.5 1.5 0.3 0.8-0.6 3-2 4.7-1.4 1.8-3.2 4.8-4 6.5-0.8 1.8-2 3.5-2.5 3.8-0.6 0.3-0.7 1.1-0.3 1.7q0.8 1.3-0.5 0.5c-0.7-0.4-1.9 0.1-3 1.1-0.9 1-3.4 1.9-5.5 2-2.7 0.1-4.3-0.4-5.8-2.1-1.2-1.2-1.8-1.5-1.4-0.7 0.5 0.9 0.4 1.2-0.1 0.7-0.5-0.5-1-1.2-1-1.5-0.1-0.4-0.4-1.7-0.8-3-0.3-1.2-0.9-2.2-1.4-2.2-0.4 0-0.7-1-0.7-2.3 0-1.2 0.3-2.4 0.6-2.7 0.3-0.3 2.4-3.9 4.6-8 2.2-4.1 3.9-8.4 3.9-9.5-0.1-1.1 0.3-2.2 0.7-2.5 0.4-0.3 0.9-5.1 1-10.7 0.1-5.7-0.1-10.3-0.6-10.3-0.4 0-0.6-0.3-0.5-0.8 0.1-0.4-0.4-2.6-1-5-0.7-2.3-2.7-6-4.5-8.2-1.7-2.2-5-6.2-7.2-8.9-2.2-2.8-4.6-5-5.3-5.1-0.6 0-1-0.7-0.7-1.5 0.3-0.8 0-1.5-0.5-1.5-0.6 0-1-0.7-1-1.5 0-0.8-0.5-1.5-1.2-1.5-0.6 0-0.8-0.3-0.5-0.8 0.4-0.4 0.1-1.3-0.6-2.1-0.6-0.8-1.9-2.8-2.9-4.5-0.9-1.7-2.1-3-2.7-2.9-0.6 0.2-0.9-0.2-0.6-0.7 0.3-0.5-0.3-1.7-1.3-2.6-1-1-1.1-1.2-0.2-0.7 0.9 0.4 0.5-0.7-1-2.7-1.3-1.9-2.9-3.8-3.5-4.2-0.5-0.4-1-1.1-1-1.5 0-0.4-1.6-3.1-3.4-5.8-1.9-2.8-7.7-9.2-12.8-14.3-5.1-5-9.8-9-10.3-8.7-0.6 0.3-1.3-0.2-1.8-1.1-0.4-0.8-1.3-1.3-2-1-0.6 0.3-1 0.1-0.7-0.4 0.3-0.6-0.2-1-1-1-0.8 0-1.9-0.1-2.4-0.3-0.5-0.1-1.3-0.5-1.8-1-0.4-0.4-1.9-0.7-3.3-0.6-2.4 0.1-2.3 0.2 0.5 1 2.4 0.6 2 0.7-2 0.5-2.9-0.2-6.1 0.2-7.8 1-1.5 0.8-2.5 1.8-2.2 2.4 0.3 0.5 0.1 0.9-0.4 0.7-0.5-0.1-2.3 0.8-4 2-1.7 1.3-3.9 4-5 6-1.4 2.9-1.7 5.3-1.4 9.8 0.3 3.3 0.9 6.4 1.4 7 0.5 0.6 1.6 0.3 2.9-1 1.7-1.6 2.5-1.8 3.8-0.9 0.9 0.6 3.8 4.4 6.4 8.5 2.6 4.1 6 9.9 7.6 12.9 1.6 3 3.9 7.3 5 9.5 1.2 2.2 3.3 6.6 4.7 9.7 1.4 3.2 2.5 6.4 2.5 7 0 0.7 0.9 4.2 2.1 7.8 1.1 3.6 2.6 10.9 3.4 16.2 0.8 5.4 1.5 10.3 1.5 10.8 0 0.5-0.5 0.8-1 0.5-0.6-0.3-1 0.6-1 2 0 1.4 0.4 2.7 1 3 0.6 0.3 0.7 1.9 0.4 3.7-0.4 2.1-0.2 3.6 0.5 4 0.8 0.6 0.9 5.2 0.3 16.7-0.5 11.7-0.4 16.2 0.5 17.2 0.7 0.8 1.4 3.6 1.7 6.4 0.3 2.7 1.2 8.6 2.1 13 0.8 4.4 1.9 9.1 2.4 10.5 0.5 1.4 1.5 4.5 2.2 7 0.7 2.5 1.6 5 1.9 5.5 0.4 0.5 1.5 3.5 2.5 6.5 1 3 3.8 9.3 6.1 14 2.4 4.7 5.3 9.9 6.6 11.6 1.3 1.7 5.7 5.8 9.8 9 4.1 3.2 10.6 7.3 14.5 9 4.6 2.2 10.1 3.7 16 4.5 7.1 1 10.4 1 15.5 0.1 3.6-0.7 8.7-2.3 11.5-3.5 2.7-1.3 7.7-4.1 11-6.3 3.3-2.1 9-6.9 12.7-10.7 3.8-3.7 6.8-7 6.8-7.5 0.1-0.4 1.1-1.7 2.3-2.8 1.2-1.2 3.7-4 5.4-6.3 2.5-3.1 4.2-4.3 7-4.7 2.6-0.4 4.9-0.1 7 1 1.9 0.9 3.9 3 4.7 4.8 0.8 1.8 1.2 4.4 0.9 5.8-0.3 1.4-1.4 3.7-2.5 5.2-1 1.6-1.8 3.3-1.8 3.8 0 0.5 0.9 2.5 2 4.2 1.1 1.8 2 4.5 2 6 0 1.6-0.8 4.2-1.8 6-0.9 1.8-2.4 4.1-3.2 5.1-0.8 1.1-4.1 5.1-7.3 8.8-3.1 3.8-5.4 7.2-5 7.5 0.5 0.3 0.3 0.4-0.3 0.2-0.6-0.2-3.6 1.9-6.6 4.7-3 2.7-5.8 5-6.1 5-0.4 0-1.4 0.7-2.4 1.5-1 0.8-3 2.2-4.5 3-1.5 0.8-2.5 1.8-2.3 2.2 0.3 0.5-0.2 0.6-1 0.3-0.8-0.3-1.5 0-1.5 0.5 0 0.5-0.9 1.2-2 1.5-1.2 0.3-2 1.3-2 2.5 0 1.3 0.8 2.2 2.2 2.4 1.3 0.3 4.1 0.9 6.3 1.5 2.2 0.6 8.3 2 13.5 3.2 6 1.3 15.2 2.2 25 2.6 12.8 0.4 18 0.1 30-1.7 8-1.2 17.2-2.8 20.5-3.7 3.3-0.8 9.1-2.6 13-3.9 3.8-1.4 10.8-4.1 15.5-6.1 4.7-2 11-5 14-6.6 3-1.7 9.3-5.5 14-8.5 4.7-3 10.7-7.3 13.5-9.5 2.7-2.3 8.5-7.5 12.8-11.7 7.2-7 7.6-7.6 6.3-9.5-0.8-1.1-1.9-1.9-2.5-1.8-0.6 0.2-0.9-0.2-0.6-0.7 0.3-0.5-0.3-1.4-1.3-1.9-0.9-0.5-3.9-4.2-6.6-8.2-2.8-4.1-5.5-8.9-6-10.7-0.6-1.8-1.4-3.2-1.9-3.2-0.4 0-0.4-0.8-0.1-1.8 0.3-0.9 0.1-2-0.5-2.5-0.7-0.4-0.9-2.3-0.5-5 0.5-3.3 0.3-4.6-1.2-6.1-1.5-1.4-2.7-1.7-5.7-1.2-2.2 0.3-3.7 0.2-3.7-0.4 0-0.5-0.7-0.8-1.5-0.5-0.8 0.3-1.5 0-1.5-0.5 0-0.5-0.8-1.2-1.8-1.5-0.9-0.2-3.5-1.4-5.7-2.7-2.2-1.3-6.5-4.3-9.6-6.8-3-2.5-5.4-5.1-5.2-5.8 0.2-0.6-0.4-1.2-1.2-1.2-0.9 0-1.2-0.5-0.8-1.1 0.5-0.6 0.3-1.4-0.3-1.8-0.5-0.3-2-3.2-3.2-6.4-1.2-3.1-2.5-5.7-3-5.7-0.4 0-0.5-1.5-0.3-3.3 0.2-1.7-0.1-3.5-0.8-4-0.6-0.4-1.1-2.5-1.1-4.7 0-2.2 0.5-4.2 1-4.5 0.5-0.3 1-1.2 1-2 0-0.8-0.7-2.2-1.5-3-0.8-0.8-2.4-1.3-3.5-1-1.1 0.3-2 0-2-0.5 0-0.5-0.7-0.8-1.5-0.5-0.8 0.3-1.7-0.2-2-1-0.3-0.8-1-1.3-1.5-1-0.5 0.3-1 0-1-0.5 0-0.5-0.7-0.8-1.5-0.5-0.8 0.3-1.3 0-1-0.5 0.3-0.5-0.2-1-1-1-0.8 0-1.5-0.5-1.5-1 0-0.5-0.7-0.8-1.5-0.5-0.8 0.3-1.5 0.2-1.5-0.3 0.1-0.4-2.3-3.2-5.2-6.2-2.9-3.1-6-6.4-6.8-7.5-0.8-1.1-2.4-4-3.5-6.5-1.1-2.5-2.2-4.7-2.6-5-0.3-0.3-0.6-6.8-0.6-14.5 0-7.7 0.4-14.2 0.8-14.5 0.5-0.3 1-1.4 1.2-2.5 0.2-1.1 0.8-2.9 1.2-4 0.5-1.1 1.6-2.5 2.4-3.2 0.9-0.7 1.3-1.3 0.8-1.3-0.4 0 0.9-1.4 2.8-3 1.9-1.7 3.5-3.5 3.5-4 0-0.5 4.1-4.9 9.1-9.8 5-4.8 20.7-20.2 34.8-34.4 14.1-14.1 26.8-26.9 28.2-28.5 1.4-1.5 4.4-4.4 6.5-6.3 2.1-1.9 4.9-4.6 6.1-6 1.1-1.4 4.9-5.2 8.2-8.5 3.4-3.3 6.1-6.3 6.1-6.8 0-0.4 0.7-0.7 1.5-0.7 0.8 0 3-1.9 4.7-4.1 1.8-2.3 3.2-4.6 3-5-0.1-0.5 0.3-0.7 0.8-0.4 0.5 0.3 1.7-1 2.6-2.8 1-1.7 1.9-4.8 2.2-6.7 0.3-1.9 0.5-4.4 0.5-5.5 0-1.1-0.3-3.4-0.6-5-0.2-1.7-1-4.2-1.6-5.8-0.6-1.5-2.8-4.6-4.9-6.9-2-2.2-5.3-4.8-7.2-5.6-2.1-0.9-6.8-1.5-11.8-1.6-6.6-0.1-9.1 0.3-12.5 2z"/><path class="a" d="m629.4 386.2c-0.2 0.4 1.4 0.8 3.6 0.8 2.2 0 4.2-0.4 4.5-1 0.3-0.6-1.2-0.9-3.6-0.8-2.3 0.1-4.3 0.5-4.5 1z"/><path class="a" d="m648.5 366.9c2.8 1 6.6 2.6 8.5 3.6 2.9 1.4 3.3 1.5 2 0.1-0.8-0.9-4-2.5-7-3.6-3-1.1-6.2-2-7-1.9-0.8 0 0.8 0.8 3.5 1.8z"/><path class="a" d="m666.2 377.3c3.9 3.6 6.9 7.6 9.7 13.2 2.3 4.4 4.1 8.7 4.1 9.5 0 0.8 0.2 1.3 0.5 1 0.3-0.3-0.1-2.8-1-5.5-0.9-2.8-3.1-7.3-5-10-1.8-2.8-5.3-6.9-7.9-9.3-2.5-2.3-4.9-4.2-5.4-4.2-0.4 0.1 1.8 2.4 5 5.3z"/><path class="a" d="m597.8 379.8c-3.3 3.1-6.4 6.5-6.9 7.4-0.5 1-0.8 1.8-0.6 1.8 0.1 0 3.5-3.4 7.5-7.5 4-4.1 7-7.5 6.6-7.5-0.3 0-3.3 2.6-6.6 5.7z"/><path class="a" d="m544.9 434.3c-20.7 20.4-43.3 42.4-50.3 48.7-6.9 6.3-15.4 14.2-18.9 17.4l-6.2 5.9c10.9-9.1 21.2-18.3 30-26.3 8.8-8 27.7-26.2 42-40.5 14.3-14.3 29.6-29.7 33.9-34.3 4.4-4.5 7.7-8.2 7.5-8.2-0.2 0-17.3 16.8-38 37.3z"/><path class="a" d="m679.1 426.2c-0.7 2.4-2.2 6.1-3.3 8.3-1.7 3.7-1.8 3.8-0.1 2 1-1.1 2.6-4.6 3.4-7.8 0.9-3.1 1.5-6 1.5-6.2-0.1-0.3-0.7 1.4-1.5 3.7z"/><path class="a" d="m642.5 470.1c-19.2 19.1-30.6 31.3-30 31.8 0.5 0.5 2.1 1.2 3.5 1.6 2.4 0.8 2.4 0.7 0.8-0.8-1-1-1.8-2-1.8-2.5 0-0.4 12.8-13.5 28.6-29.2 15.7-15.7 28.9-29.3 29.4-30.3 0.5-0.9 0.8-1.7 0.7-1.7-0.1 0-14.2 14-31.2 31.1z"/><path class="a" d="m306.4 459.3c-2.2 1.2-6.8 4.7-10.2 7.7-3.4 3-6.6 6.5-7.2 7.7-0.5 1.3 1.9-0.8 5.4-4.7 4.6-4.9 8.3-7.8 12.8-10 3.5-1.7 5.6-3 4.8-3-0.8 0.1-3.3 1.1-5.6 2.3z"/><path class="a" d="m362 471.2c3.1 2.9 8.5 8.7 12.1 12.8 3.6 4.1 7.5 9.2 8.7 11.3 1.2 2 2.4 3.7 2.7 3.7 0.3 0-0.5-1.7-1.6-3.7-1.2-2.1-3.5-5.5-5.3-7.6-1.7-2.1-6.5-7.4-10.6-11.9-4.1-4.4-8.4-8.4-9.5-8.9-1.1-0.6 0.5 1.4 3.5 4.3z"/><path class="a" d="m625.5 507.9c2.8 1.6 7.1 5.1 9.6 7.8 2.6 2.6 5.8 6.8 7.3 9.3 1.4 2.5 2.6 3.9 2.6 3.3 0-0.7-0.6-2.5-1.4-4-0.8-1.6-4.7-6-8.8-9.9-4-4-8.3-7.7-9.5-8.3-1.3-0.6-2.9-1.1-3.5-1.1-0.7 0 1 1.3 3.7 2.9z"/><path class="a" d="m451 519.5c-4.7 3.6-12.3 8.5-17 11-4.7 2.5-7.4 4.3-6 3.9 1.4-0.4 5.4-2.3 9-4.3 3.6-2.1 10-6.3 14.3-9.4 4.2-3.1 7.9-6.2 8.2-6.7 0.2-0.5 0.3-1 0.2-1-0.1 0.1-4 3-8.7 6.5z"/><path class="a" d="m284.1 515.8c-0.1 0.6 1.7 4.7 3.8 9 2.1 4.2 4.9 8.6 6.1 9.7 1.6 1.4 1.1 0.2-1.5-4-2.1-3.3-4.9-8.2-6.1-11-1.3-2.7-2.3-4.4-2.3-3.7z"/><path class="a" d="m404.6 528.8c1 1.8 3.4 4.2 5.1 5.3 1.8 1 3.6 1.7 4 1.4 0.3-0.3 0-0.5-0.8-0.5-0.8 0-3.4-2.2-5.8-4.8-3.8-4.1-4.2-4.3-2.5-1.4z"/><path class="a" d="m298.5 541.5c1 1.6 2.7 4.5 3.7 6.3 1 1.7 2 3.2 2.3 3.2 0.3 0-0.7-2.3-2.3-5.1-1.5-2.8-3.4-5.6-4.2-6.3q-1.4-1.1 0.5 1.9z"/><path class="a" d="m311.3 563.5c2.3 4.6 4.3 8.2 4.4 8 0.2-0.3-1.5-4.1-3.7-8.5-2.2-4.4-4.2-8-4.5-8-0.3 0 1.4 3.8 3.8 8.5z"/><path class="a" d="m660.5 567.6c2.8 1.4 5.9 3.3 6.9 4.2 1.1 1 1.6 1.1 1.3 0.4-0.4-0.6-2.8-2.6-5.5-4.2-2.6-1.7-5.4-3-6.2-3-0.8 0 0.7 1.1 3.5 2.6z"/><path class="a" d="m671.5 575c0.5 0.8 2.3 3.3 4.1 5.5 1.8 2.2 3.7 5.1 4.3 6.5 0.5 1.4 1 1.8 1.1 1 0-0.8-1.3-3.5-2.9-6-1.6-2.5-3.9-5.4-5.2-6.5-1.3-1.2-1.9-1.4-1.4-0.5z"/><path class="a" d="m323.1 597.5c0 1.1-0.5 2.5-1 3-0.5 0.6-0.1 2.2 1 4l1.9 3c-0.2-5.4-0.6-8.1-1-9.5-0.7-2.1-0.8-2.1-0.9-0.5z"/><path class="a" d="m696.4 622.2c1 0.7 4.1 3.1 7 5.2 4.9 3.8 5 3.9 2.1 0.7-1.6-1.8-4.8-4.1-7-5.2-2.2-1.1-3.2-1.4-2.1-0.7z"/><path class="a" d="m710.3 635c1 1.4 3.1 5.2 4.7 8.5 1.7 3.3 3 5.3 3 4.5 0-0.8-1.3-4-2.9-7-1.6-3-3.7-6.2-4.7-7-1.8-1.4-1.8-1.4-0.1 1z"/><path class="a" d="m712.5 688.3c-1 1.8-6.6 8.4-12.3 14.7l-10.6 11.5c14.3-13.9 20.1-20.4 22.2-23.2 2-2.9 3.4-5.5 3.1-5.8-0.3-0.2-1.4 1-2.4 2.8z"/><path class="a" d="m335 699c0 0.8 0.9 4 2 7 1.2 3 2.3 5.7 2.6 6 0.2 0.3 0.4 0.3 0.4 0 0-0.3-0.9-3.4-2.1-7-1.1-3.6-2.3-6.7-2.5-7-0.3-0.3-0.4 0.2-0.4 1z"/><path class="a" d="m680.4 724.7c-4.9 5.3-8.4 9.5-7.9 9.2 0.6-0.2 4.9-4.3 9.5-9.2 4.7-4.8 8.2-8.9 7.9-9.2-0.3-0.3-4.6 3.9-9.5 9.2z"/><path class="a" d="m345 723.8c0 0.6 1.1 3.5 2.5 6.2 1.4 2.8 3.1 5.3 3.8 5.7 0.6 0.4 0.2-0.8-1-2.7-1.2-1.9-2.9-5.1-3.7-7-0.8-1.9-1.5-2.9-1.6-2.2z"/><path class="a" d="m658.1 749.3c-6.6 7.2-15.1 15.9-18.8 19.2-3.7 3.3-10.1 8.5-14.3 11.6-4.1 3-10.8 7.5-14.8 10-4 2.4-7.3 4.5-7.2 4.7 0 0.1 1.2-0.4 2.7-1 1.6-0.7 7.8-4.6 13.8-8.7 6-4 13.4-9.4 16.4-12 2.9-2.5 8.1-7.4 11.5-10.7 3.3-3.4 9.5-9.9 13.6-14.4 4.1-4.6 8.1-9.1 8.7-10.2 0.7-1 1.1-1.8 0.9-1.8-0.3 0-5.9 6-12.5 13.3z"/><path class="a" d="m366.7 758.5c1.7 2.2 7.6 8.3 13 13.5 5.5 5.2 12 11.1 14.4 13 2.4 1.9 6.2 4.7 8.4 6.1 2.2 1.4 5.6 3.6 7.5 4.7 1.9 1.2 6.2 3.6 9.5 5.3 3.3 1.8 7.4 3.6 9 4.1 1.6 0.5 2.8 0.7 2.5 0.4-0.3-0.2-5.7-3-12-6.3-6.3-3.2-16-9.2-21.5-13.2-5.5-4.1-15.4-12.8-21.9-19.5-6.6-6.7-10.6-10.3-8.9-8.1z"/><path class="a" d="m594.9 798.3c-2.6 1.2-4.9 2.5-5.2 2.9-0.3 0.4 0.9 0.3 2.7-0.3 1.7-0.5 4.1-1.6 5.4-2.4 1.2-0.8 2.2-1.7 2.2-2 0-0.3-0.1-0.5-0.2-0.4-0.2 0-2.4 1-4.9 2.2z"/><path class="a" d="m462.8 816.4c1.2 0.6 2 1.7 1.7 2.4-0.3 0.8 0.5 1.1 2.7 1 1.7-0.2 3.3-0.8 3.5-1.3 0.2-0.5-1.4-1.3-3.4-1.7-2.1-0.4-4.5-0.9-5.3-1.1-0.8-0.1-0.5 0.2 0.8 0.7z"/><path class="a" d="m544.9 815.4c-0.2 0.3-3.3 1-6.9 1.7-3.6 0.6-9.4 1.5-13 1.9-5.2 0.5-4.1 0.6 5.8 0.6 7.4-0.1 12.2-0.5 12.2-1.1 0-0.5 1.2-1.5 2.7-2.1 1.6-0.7 2.1-1.2 1.2-1.3-0.9-0.1-1.8 0.1-2 0.3z"/><path class="a" d="m472.9 818.8c0.1 0.4 2.7 0.8 5.8 1 3.2 0.2 5.6 0.1 5.3-0.1-0.3-0.2-2.9-0.7-5.8-1-2.9-0.3-5.3-0.3-5.3 0.1z"/></svg>