<?xml version="1.0" standalone="no"?>
<!DOCTYPE svg PUBLIC "-//W3C//DTD SVG 20010904//EN"
 "http://www.w3.org/TR/2001/REC-SVG-20010904/DTD/svg10.dtd">
<svg version="1.0" xmlns="http://www.w3.org/2000/svg"
 width="768.000000pt" height="768.000000pt" viewBox="0 0 768.000000 768.000000"
 preserveAspectRatio="xMidYMid meet">

<g transform="translate(0.000000,768.000000) scale(0.100000,-0.100000)"
fill="#000000" stroke="none">
<path d="M3600 7663 c-601 -42 -1142 -200 -1645 -482 -105 -59 -242 -147 -401
-256 -11 -8 -63 39 -237 213 l-222 222 -398 -398 -397 -397 222 -223 c174
-173 221 -225 213 -236 -93 -135 -197 -297 -246 -383 -235 -419 -383 -852
-461 -1343 -21 -134 -23 -177 -23 -550 0 -450 7 -521 80 -845 106 -475 324
-969 593 -1348 34 -48 62 -91 62 -95 0 -4 -99 -106 -220 -227 l-220 -220 397
-397 398 -398 222 222 c172 172 226 221 237 213 582 -412 1170 -642 1841 -720
178 -21 692 -21 870 0 1291 150 2403 926 2995 2090 201 394 328 822 387 1300
24 195 24 655 0 850 -98 799 -403 1496 -908 2080 -103 119 -323 337 -432 429
-622 524 -1388 835 -2202 896 -128 9 -395 11 -505 3z m625 -1152 c588 -90
1111 -354 1525 -770 211 -212 378 -448 510 -716 131 -267 207 -506 251 -796
32 -208 32 -590 0 -798 -120 -777 -547 -1440 -1206 -1873 -135 -89 -391 -218
-539 -273 -594 -218 -1283 -218 -1872 0 -177 66 -534 248 -534 273 0 4 510
517 1132 1139 l1133 1133 -1133 1133 c-622 622 -1132 1135 -1132 1139 0 12
168 109 303 173 288 138 583 220 914 255 142 14 498 4 648 -19z m-1925 -1946
l735 -735 -735 -735 c-404 -404 -738 -735 -742 -735 -10 0 -99 151 -156 265
-130 261 -213 531 -258 840 -25 168 -25 562 0 730 55 378 169 702 356 1019 28
47 54 86 58 86 4 0 338 -331 742 -735z"/>
</g>
</svg>
